<svg xmlns="http://www.w3.org/2000/svg" width="74.958" height="75.411" viewBox="0 0 74.958 75.411">
  <g id="Group_389" data-name="Group 389" transform="translate(2.3 2.3)">
    <g id="Path_1107" data-name="Path 1107" fill="none" stroke-linecap="round" stroke-linejoin="round" stroke-dasharray="11 6">
      <path d="M0,0H70V70H0Z" stroke="none"/>
      <path d="M 0 -2.300003051757812 L 11 -2.300003051757812 C 11.6351203918457 -2.300003051757812 12.15000152587891 -1.785125732421875 12.15000152587891 -1.150001525878906 C 12.15000152587891 -0.5148773193359375 11.6351203918457 0 11 0 C 11 0 0 0 0 0 C 0 0 0 0 0 0 C 0 0 0 8 0 8 C 0 8.635120391845703 -0.5148773193359375 9.150001525878906 -1.150001525878906 9.150001525878906 C -1.785125732421875 9.150001525878906 -2.300003051757812 8.635120391845703 -2.300003051757812 8 L -2.300003051757812 0 C -2.300003051757812 -0.6351242065429688 -1.785125732421875 -1.150001525878906 -1.150001525878906 -1.150001525878906 C -1.150001525878906 -1.150001525878906 -1.150001525878906 -1.150001525878906 -1.150001525878906 -1.150001525878906 C -1.150001525878906 -1.785125732421875 -0.6351242065429688 -2.300003051757812 0 -2.300003051757812 Z M 17 -2.300003051757812 L 28 -2.300003051757812 C 28.6351203918457 -2.300003051757812 29.15000152587891 -1.785125732421875 29.15000152587891 -1.150001525878906 C 29.15000152587891 -0.5148773193359375 28.6351203918457 0 28 0 C 28 0 17 0 17 0 C 16.3648796081543 0 15.84999847412109 -0.5148773193359375 15.84999847412109 -1.150001525878906 C 15.84999847412109 -1.785125732421875 16.3648796081543 -2.300003051757812 17 -2.300003051757812 Z M 34 -2.300003051757812 L 45 -2.300003051757812 C 45.63512420654297 -2.300003051757812 46.15000152587891 -1.785125732421875 46.15000152587891 -1.150001525878906 C 46.15000152587891 -0.5148773193359375 45.63512420654297 0 45 0 C 45 0 34 0 34 0 C 33.3648796081543 0 32.84999847412109 -0.5148773193359375 32.84999847412109 -1.150001525878906 C 32.84999847412109 -1.785125732421875 33.3648796081543 -2.300003051757812 34 -2.300003051757812 Z M 51 -2.300003051757812 L 62 -2.300003051757812 C 62.63512420654297 -2.300003051757812 63.15000152587891 -1.785125732421875 63.15000152587891 -1.150001525878906 C 63.15000152587891 -0.5148773193359375 62.63512420654297 0 62 0 C 62 0 51 0 51 0 C 50.36487579345703 0 49.84999847412109 -0.5148773193359375 49.84999847412109 -1.150001525878906 C 49.84999847412109 -1.785125732421875 50.36487579345703 -2.300003051757812 51 -2.300003051757812 Z M 68 -2.300003051757812 L 70 -2.300003051757812 C 71.27025604248047 -2.300003051757812 72.30000305175781 -1.270256042480469 72.30000305175781 0 L 72.30000305175781 9 C 72.30000305175781 9.635120391845703 71.78512573242188 10.15000152587891 71.15000152587891 10.15000152587891 C 70.51487731933594 10.15000152587891 70 9.635120391845703 70 9 L 70 0 C 70 0 70 0 70 0 C 70 0 68 0 68 0 C 67.36487579345703 0 66.84999847412109 -0.5148773193359375 66.84999847412109 -1.150001525878906 C 66.84999847412109 -1.785125732421875 67.36487579345703 -2.300003051757812 68 -2.300003051757812 Z M 71.15000152587891 13.84999847412109 C 71.78512573242188 13.84999847412109 72.30000305175781 14.3648796081543 72.30000305175781 15 L 72.30000305175781 26 C 72.30000305175781 26.6351203918457 71.78512573242188 27.15000152587891 71.15000152587891 27.15000152587891 C 70.51487731933594 27.15000152587891 70 26.6351203918457 70 26 L 70 15 C 70 14.3648796081543 70.51487731933594 13.84999847412109 71.15000152587891 13.84999847412109 Z M 71.15000152587891 30.84999847412109 C 71.78512573242188 30.84999847412109 72.30000305175781 31.3648796081543 72.30000305175781 32 L 72.30000305175781 43 C 72.30000305175781 43.63512420654297 71.78512573242188 44.15000152587891 71.15000152587891 44.15000152587891 C 70.51487731933594 44.15000152587891 70 43.63512420654297 70 43 L 70 32 C 70 31.3648796081543 70.51487731933594 30.84999847412109 71.15000152587891 30.84999847412109 Z M 71.15000152587891 47.84999847412109 C 71.78512573242188 47.84999847412109 72.30000305175781 48.36487579345703 72.30000305175781 49 L 72.30000305175781 60 C 72.30000305175781 60.63512420654297 71.78512573242188 61.15000152587891 71.15000152587891 61.15000152587891 C 70.51487731933594 61.15000152587891 70 60.63512420654297 70 60 L 70 49 C 70 48.36487579345703 70.51487731933594 47.84999847412109 71.15000152587891 47.84999847412109 Z M 71.15000152587891 64.84999847412109 C 71.78512573242188 64.84999847412109 72.30000305175781 65.36487579345703 72.30000305175781 66 L 72.30000305175781 70 C 72.30000305175781 71.27025604248047 71.27025604248047 72.30000305175781 70 72.30000305175781 L 63 72.30000305175781 C 62.36487579345703 72.30000305175781 61.84999847412109 71.78512573242188 61.84999847412109 71.15000152587891 C 61.84999847412109 70.51487731933594 62.36487579345703 70 63 70 L 70 70 L 70 66 C 70 65.36487579345703 70.51487731933594 64.84999847412109 71.15000152587891 64.84999847412109 Z M 46 70 L 57 70 C 57.63512420654297 70 58.15000152587891 70.51487731933594 58.15000152587891 71.15000152587891 C 58.15000152587891 71.78512573242188 57.63512420654297 72.30000305175781 57 72.30000305175781 L 46 72.30000305175781 C 45.36487579345703 72.30000305175781 44.84999847412109 71.78512573242188 44.84999847412109 71.15000152587891 C 44.84999847412109 70.51487731933594 45.36487579345703 70 46 70 Z M 29 70 L 40 70 C 40.63512420654297 70 41.15000152587891 70.51487731933594 41.15000152587891 71.15000152587891 C 41.15000152587891 71.78512573242188 40.63512420654297 72.30000305175781 40 72.30000305175781 L 29 72.30000305175781 C 28.3648796081543 72.30000305175781 27.84999847412109 71.78512573242188 27.84999847412109 71.15000152587891 C 27.84999847412109 70.51487731933594 28.3648796081543 70 29 70 Z M 12 70 L 23 70 C 23.6351203918457 70 24.15000152587891 70.51487731933594 24.15000152587891 71.15000152587891 C 24.15000152587891 71.78512573242188 23.6351203918457 72.30000305175781 23 72.30000305175781 L 12 72.30000305175781 C 11.3648796081543 72.30000305175781 10.84999847412109 71.78512573242188 10.84999847412109 71.15000152587891 C 10.84999847412109 70.51487731933594 11.3648796081543 70 12 70 Z M -1.150001525878906 63.84999847412109 C -0.5148773193359375 63.84999847412109 0 64.36487579345703 0 65 C 0 65 0 70 0 70 C 0 70 0 70 0 70 L 6 70 C 6.635120391845703 70 7.150001525878906 70.51487731933594 7.150001525878906 71.15000152587891 C 7.150001525878906 71.78512573242188 6.635120391845703 72.30000305175781 6 72.30000305175781 L 0 72.30000305175781 C -1.270256042480469 72.30000305175781 -2.300003051757812 71.27025604248047 -2.300003051757812 70 L -2.300003051757812 65 C -2.300003051757812 64.36487579345703 -1.785125732421875 63.84999847412109 -1.150001525878906 63.84999847412109 Z M -1.150001525878906 46.84999847412109 C -0.5148773193359375 46.84999847412109 0 47.36487579345703 0 48 C 0 48 0 59 0 59 C 0 59.63512420654297 -0.5148773193359375 60.15000152587891 -1.150001525878906 60.15000152587891 C -1.785125732421875 60.15000152587891 -2.300003051757812 59.63512420654297 -2.300003051757812 59 L -2.300003051757812 48 C -2.300003051757812 47.36487579345703 -1.785125732421875 46.84999847412109 -1.150001525878906 46.84999847412109 Z M -1.150001525878906 29.84999847412109 C -0.5148773193359375 29.84999847412109 0 30.3648796081543 0 31 C 0 31 0 42 0 42 C 0 42.63512420654297 -0.5148773193359375 43.15000152587891 -1.150001525878906 43.15000152587891 C -1.785125732421875 43.15000152587891 -2.300003051757812 42.63512420654297 -2.300003051757812 42 L -2.300003051757812 31 C -2.300003051757812 30.3648796081543 -1.785125732421875 29.84999847412109 -1.150001525878906 29.84999847412109 Z M -1.150001525878906 12.84999847412109 C -0.5148773193359375 12.84999847412109 0 13.3648796081543 0 14 C 0 14 0 25 0 25 C 0 25.6351203918457 -0.5148773193359375 26.15000152587891 -1.150001525878906 26.15000152587891 C -1.785125732421875 26.15000152587891 -2.300003051757812 25.6351203918457 -2.300003051757812 25 L -2.300003051757812 14 C -2.300003051757812 13.3648796081543 -1.785125732421875 12.84999847412109 -1.150001525878906 12.84999847412109 Z" stroke="none" fill="#00a7b4"/>
    </g>
    <g id="Path_1106" data-name="Path 1106" transform="translate(-1223.324 -1193.913) rotate(-45)" fill="none" stroke-linecap="round" stroke-linejoin="round">
      <path d="M10.189,1771.6l10.466-17.8,10.109,17.8h-7.1l1.713,17.3,1.048,8.739h-11l.728-8.441,1.527-17.6Z" stroke="none"/>
      <path d="M 20.6557788848877 1753.793579101562 L 10.18944931030273 1771.596313476562 L 17.6907787322998 1771.596313476562 L 16.16350936889648 1789.191528320312 L 15.43535995483398 1797.632202148438 L 26.4310188293457 1797.632202148438 L 25.38275909423828 1788.892944335938 L 23.66934013366699 1771.596313476562 L 30.76436996459961 1771.596313476562 L 20.6557788848877 1753.793579101562 M 20.65570449829102 1751.593627929688 C 20.6612606048584 1751.593627929688 20.66678619384766 1751.593627929688 20.67234992980957 1751.593627929688 C 21.45804023742676 1751.599609375 22.18092918395996 1752.024047851562 22.56888961791992 1752.707275390625 L 32.6774787902832 1770.510009765625 C 33.06417846679688 1771.191040039062 33.0596809387207 1772.0263671875 32.6656608581543 1772.703125 C 32.27164840698242 1773.380004882812 31.54752922058105 1773.796264648438 30.76436996459961 1773.796264648438 L 26.09803771972656 1773.796264648438 L 27.56978988647461 1788.6533203125 L 28.61536026000977 1797.370239257812 C 28.69028854370117 1797.994873046875 28.49420928955078 1798.621704101562 28.07667922973633 1799.09228515625 C 27.65916061401367 1799.562866210938 27.06013870239258 1799.832153320312 26.4310188293457 1799.832153320312 L 15.43535995483398 1799.832153320312 C 14.81900978088379 1799.832153320312 14.23093032836914 1799.573608398438 13.81424903869629 1799.119506835938 C 13.39757919311523 1798.665283203125 13.19052886962891 1798.05712890625 13.24349975585938 1797.443115234375 L 13.97164916992188 1789.00244140625 L 15.29154586791992 1773.796264648438 L 10.18944931030273 1773.796264648438 C 9.400369644165039 1773.796264648438 8.671718597412109 1773.373657226562 8.279869079589844 1772.688842773438 C 7.888031005859375 1772.00390625 7.893009185791016 1771.16162109375 8.292919158935547 1770.481323242188 L 18.75924873352051 1752.678588867188 C 19.15464019775391 1752.006103515625 19.87638473510742 1751.593627929688 20.65570449829102 1751.593627929688 Z" stroke="none" fill="#00a7b4"/>
    </g>
  </g>
</svg>
