<svg xmlns="http://www.w3.org/2000/svg" xmlns:xlink="http://www.w3.org/1999/xlink" width="781.41" height="555" viewBox="0 0 781.41 555">
  <defs>
    <filter id="Background_Blob" x="0" y="0" width="781.41" height="555" filterUnits="userSpaceOnUse">
      <feOffset dx="7" dy="7" input="SourceAlpha"/>
      <feGaussianBlur stdDeviation="17.5" result="blur"/>
      <feFlood flood-color="#141414" flood-opacity="0.071"/>
      <feComposite operator="in" in2="blur"/>
      <feComposite in="SourceGraphic"/>
    </filter>
  </defs>
  <g id="Hero_Image" data-name="Hero Image" transform="translate(45.5 38.5)">
    <g transform="matrix(1, 0, 0, 1, -45.5, -38.5)" filter="url(#Background_Blob)">
      <path id="Background_Blob-2" data-name="Background Blob" d="M164.12,380.413c75.783-50.1,176.013,36.825,289.688,19.34s213.9-130.663,264.019-65.725,25.51,123.4,18.981,181.212,71.5,129.738,14.146,208.122-147.991-42.946-230.692-37.991S393.7,756.789,326.568,763.006s-149.08-11.562-200.224-107.365S88.337,430.509,164.12,380.413Z" transform="translate(-50.22 -268.62)" fill="rgba(0,203,255,0.56)" opacity="0.83"/>
    </g>
    <g id="Page" transform="translate(226.386)">
      <path id="Path_1077" data-name="Path 1077" d="M2.633,0h260.72c1.454,0,2.633,1.8,2.633,4.017V271.749c0,2.218-1.179,4.017-2.633,4.017H2.633c-1.454,0-2.633-1.8-2.633-4.017V4.017C0,1.8,1.179,0,2.633,0Z" transform="translate(0 7)" fill="#e0e0e3"/>
      <g id="Group_360" data-name="Group 360" transform="translate(88.058 159.819)">
        <path id="Path_1141" data-name="Path 1141" d="M7.963,0h116.15a7.963,7.963,0,0,1,7.963,7.963V58.608a7.963,7.963,0,0,1-7.963,7.963H7.963A7.963,7.963,0,0,1,0,58.608V7.963A7.963,7.963,0,0,1,7.963,0Z" fill="#575757"/>
        <g id="Group_392" data-name="Group 392">
          <path id="Path_1142" data-name="Path 1142" d="M1.707,0H21.214a1.707,1.707,0,0,1,1.707,1.707h0a1.707,1.707,0,0,1-1.707,1.707H1.707A1.707,1.707,0,0,1,0,1.707H0A1.707,1.707,0,0,1,1.707,0Z" transform="translate(61.705 41.55)" fill="#00edff"/>
          <path id="Path_1143" data-name="Path 1143" d="M1.707,0H31.995A1.707,1.707,0,0,1,33.7,1.707h0a1.707,1.707,0,0,1-1.707,1.707H1.707A1.707,1.707,0,0,1,0,1.707H0A1.707,1.707,0,0,1,1.707,0Z" transform="translate(61.038 23.861)" fill="#fff"/>
          <path id="Path_1144" data-name="Path 1144" d="M1.707,0h57.33a1.707,1.707,0,0,1,1.707,1.707h0a1.707,1.707,0,0,1-1.707,1.707H1.707A1.707,1.707,0,0,1,0,1.707H0A1.707,1.707,0,0,1,1.707,0Z" transform="translate(61.253 13.108)" fill="#fff"/>
        </g>
        <g id="Group_393" data-name="Group 393">
          <path id="Bar_Small" data-name="Bar Small" d="M1.707,0h13.9a1.707,1.707,0,0,1,1.707,1.707V8.6a1.707,1.707,0,0,1-1.707,1.707H1.707A1.707,1.707,0,0,1,0,8.6v-6.9A1.707,1.707,0,0,1,1.707,0Z" transform="translate(13.597 52.066) rotate(-90)" fill="#818181"/>
          <path id="Bar_Medium" data-name="Bar Medium" d="M1.707,0H29.67a1.707,1.707,0,0,1,1.707,1.707V8.6a1.707,1.707,0,0,1-1.707,1.707H1.707A1.707,1.707,0,0,1,0,8.6v-6.9A1.707,1.707,0,0,1,1.707,0Z" transform="translate(29.345 52.238) rotate(-90)" fill="#818181"/>
          <path id="Bar_Large" data-name="Bar Large" d="M1.707,0H41.341a1.707,1.707,0,0,1,1.707,1.707V8.6a1.707,1.707,0,0,1-1.707,1.707H1.707A1.707,1.707,0,0,1,0,8.6v-6.9A1.707,1.707,0,0,1,1.707,0Z" transform="translate(44.439 51.848) rotate(-90)" fill="#818181"/>
        </g>
      </g>
      <g id="Group_359" data-name="Group 359" transform="translate(14.816 160.023)">
        <path id="Path_1078" data-name="Path 1078" d="M6.312,0H49.233a6.312,6.312,0,0,1,6.312,6.312V56.568a6.312,6.312,0,0,1-6.312,6.312H6.312A6.312,6.312,0,0,1,0,56.568V6.312A6.312,6.312,0,0,1,6.312,0Z" fill="#effeff"/>
        <g id="Group_391" data-name="Group 391">
          <path id="Path_1138" data-name="Path 1138" d="M0,0H55.545V12.385A6.312,6.312,0,0,1,49.233,18.7H6.312A6.312,6.312,0,0,1,0,12.385Z" transform="translate(0 46.964)" fill="#575757"/>
          <path id="Path_1139" data-name="Path 1139" d="M1.707,0H28.293A1.707,1.707,0,0,1,30,1.707h0a1.707,1.707,0,0,1-1.707,1.707H1.707A1.707,1.707,0,0,1,0,1.707H0A1.707,1.707,0,0,1,1.707,0Z" transform="translate(5.278 50.869)" fill="#fff"/>
          <path id="Path_1140" data-name="Path 1140" d="M1.707,0H13.293A1.707,1.707,0,0,1,15,1.707h0a1.707,1.707,0,0,1-1.707,1.707H1.707A1.707,1.707,0,0,1,0,1.707H0A1.707,1.707,0,0,1,1.707,0Z" transform="translate(5.118 57.775)" fill="#fff"/>
        </g>
        <g id="Loading_Icon" data-name="Loading Icon" transform="translate(8.582 3.937)">
          <path id="Path_470" data-name="Path 470" d="M641.161,3251.737a2.118,2.118,0,0,1,2.119-2.118,14.953,14.953,0,1,1,14.953-14.953,2.118,2.118,0,1,1,4.237,0,19.19,19.19,0,1,0-19.19,19.19A2.119,2.119,0,0,1,641.161,3251.737Z" transform="translate(-624.089 -3215.475)" fill="#818181"/>
          <path id="Path_471" data-name="Path 471" d="M660.351,3232.547a2.119,2.119,0,0,0-2.118,2.119,14.97,14.97,0,0,1-14.953,14.953,2.119,2.119,0,1,0,0,4.237,19.212,19.212,0,0,0,19.19-19.19A2.119,2.119,0,0,0,660.351,3232.547Z" transform="translate(-624.089 -3215.475)" fill="#00edff"/>
        </g>
      </g>
      <path id="Path_1075" data-name="Path 1075" d="M1089.255,4017.679v26.209H823.269v-26.209c0-4.905,5.723-8.884,12.78-8.884h240.425C1083.532,4008.795,1089.255,4012.773,1089.255,4017.679Z" transform="translate(-823.269 -4008.795)" fill="#575757"/>
      <g id="Component_1_1" data-name="Component 1 – 1" transform="translate(14.816 60.192)">
        <path id="Path_1076" data-name="Path 1076" d="M2.39,0H76.551a2.39,2.39,0,0,1,2.39,2.39h0a2.39,2.39,0,0,1-2.39,2.39H2.39A2.39,2.39,0,0,1,0,2.39H0A2.39,2.39,0,0,1,2.39,0Z" fill="#575757"/>
        <path id="Path_1132" data-name="Path 1132" d="M2.39,0H52.71A2.39,2.39,0,0,1,55.1,2.39h0a2.39,2.39,0,0,1-2.39,2.39H2.39A2.39,2.39,0,0,1,0,2.39H0A2.39,2.39,0,0,1,2.39,0Z" transform="translate(0 11.923)" fill="#575757"/>
        <path id="Path_1133" data-name="Path 1133" d="M1.707,0H14.96a1.707,1.707,0,0,1,1.707,1.707h0A1.707,1.707,0,0,1,14.96,3.414H1.707A1.707,1.707,0,0,1,0,1.707H0A1.707,1.707,0,0,1,1.707,0Z" transform="translate(0 32.826)" fill="#00edff"/>
      </g>
      <g id="Component_2_1" data-name="Component 2 – 1" transform="translate(14.816 11.937)">
        <path id="Path_1134" data-name="Path 1134" d="M1.707,0H41.341a1.707,1.707,0,0,1,1.707,1.707V8.6a1.707,1.707,0,0,1-1.707,1.707H1.707A1.707,1.707,0,0,1,0,8.6v-6.9A1.707,1.707,0,0,1,1.707,0Z" transform="translate(43.048 10.311) rotate(180)" fill="#fff"/>
        <path id="Path_1135" data-name="Path 1135" d="M1.707,0H13.791A1.707,1.707,0,0,1,15.5,1.707V8.293A1.707,1.707,0,0,1,13.791,10H1.707A1.707,1.707,0,0,1,0,8.293V1.707A1.707,1.707,0,0,1,1.707,0Z" transform="translate(43.048 10.311) rotate(180)" fill="#00edff"/>
      </g>
      <path id="Path_1136" data-name="Path 1136" d="M1.707,0H58.663A1.707,1.707,0,0,1,60.37,1.707V17.6a1.707,1.707,0,0,1-1.707,1.707H1.707A1.707,1.707,0,0,1,0,17.6V1.707A1.707,1.707,0,0,1,1.707,0Z" transform="translate(14.816 118.572)" fill="#00deef"/>
      <path id="Path_1137" data-name="Path 1137" d="M1.707,0H58.663A1.707,1.707,0,0,1,60.37,1.707V17.6a1.707,1.707,0,0,1-1.707,1.707H1.707A1.707,1.707,0,0,1,0,17.6V1.707A1.707,1.707,0,0,1,1.707,0Z" transform="translate(88.816 118.572)" fill="#818181"/>
    </g>
    <g id="Lamp" transform="translate(516.848 134.536)">
      <path id="Path_1147" data-name="Path 1147" d="M0,0H5.458V188.341H0Z" transform="translate(48.612 56.523)" fill="#9b9b9b"/>
      <path id="Path_1148" data-name="Path 1148" d="M2.652,0H82.438A2.652,2.652,0,0,1,85.09,2.652v.154a2.652,2.652,0,0,1-2.652,2.652H2.652A2.652,2.652,0,0,1,0,2.806V2.652A2.652,2.652,0,0,1,2.652,0Z" transform="translate(8.796 244.864)" fill="#d2dcff"/>
      <path id="Path_246" data-name="Path 246" d="M1342.888,1211.815H1240.205l17.767-56.523h67.148Z" transform="translate(-1240.205 -1155.292)" fill="#989797"/>
      <path id="Path_247" data-name="Path 247" d="M1294.276,1211.815v32.678c-1.845.626-3.672,1.248-5.458,1.855v-34.533Z" transform="translate(-1240.205 -1155.292)" fill="#717171"/>
      <path id="Path_248" data-name="Path 248" d="M1246.5,1191.791l90.108.044,1.3,4.151h-92.731Z" transform="translate(-1240.205 -1155.292)" fill="#717171"/>
    </g>
    <g id="Cupborad" transform="translate(24.882 214.471)">
      <path id="Path_1149" data-name="Path 1149" d="M4.762,0h34.8V97.851H4.762A4.762,4.762,0,0,1,0,93.089V4.762A4.762,4.762,0,0,1,4.762,0Z" transform="translate(0 0)" fill="#717171"/>
      <path id="Path_1150" data-name="Path 1150" d="M0,0H100.318a4.762,4.762,0,0,1,4.762,4.762V93.089a4.762,4.762,0,0,1-4.762,4.762H0Z" transform="translate(39.56 0)" fill="#989797"/>
      <path id="Path_1151" data-name="Path 1151" d="M0,0H83.174V31.205H0Z" transform="translate(50.513 14.055)" fill="#cbcbcb"/>
      <path id="Path_1152" data-name="Path 1152" d="M0,0H83.174V31.205H0Z" transform="translate(50.513 52.59)" fill="#cbcbcb"/>
      <path id="Path_1153" data-name="Path 1153" d="M1.107,0H31.149a1.107,1.107,0,0,1,1.107,1.107v.447A1.107,1.107,0,0,1,31.149,2.66H1.107A1.107,1.107,0,0,1,0,1.553V1.107A1.107,1.107,0,0,1,1.107,0Z" transform="translate(75.972 36.781)" fill="#575757"/>
      <path id="Path_1154" data-name="Path 1154" d="M1.107,0H31.149a1.107,1.107,0,0,1,1.107,1.107v.447A1.107,1.107,0,0,1,31.149,2.66H1.107A1.107,1.107,0,0,1,0,1.553V1.107A1.107,1.107,0,0,1,1.107,0Z" transform="translate(75.972 75.316)" fill="#575757"/>
      <path id="Path_289" data-name="Path 289" d="M1656.426,1333.466l-1.559,11.042-8.627,61.106h-3.375l5.761-61.3,1.019-10.844Z" transform="translate(-1642.865 -1235.615)" fill="#9b9b9b"/>
      <path id="Path_290" data-name="Path 290" d="M1696.666,1333.466l-1.739,12.313-8.447,59.834h-3.375l5.641-60.031,1.139-12.117Z" transform="translate(-1642.865 -1235.615)" fill="#9b9b9b"/>
      <path id="Path_291" data-name="Path 291" d="M1787.5,1405.614h-3.375l-8.084-57.261-2.1-14.887h6.78l1.418,15.08Z" transform="translate(-1642.865 -1235.615)" fill="#9b9b9b"/>
      <path id="Path_292" data-name="Path 292" d="M1747.265,1405.614h-3.375l-8.265-58.543-1.921-13.6h6.78l1.3,13.8Z" transform="translate(-1642.865 -1235.615)" fill="#9b9b9b"/>
      <path id="Path_293" data-name="Path 293" d="M1649.645,1333.466h6.78l-1.559,11.042-6.241-.2Z" transform="translate(-1642.865 -1235.615)" fill="#575757"/>
      <path id="Path_294" data-name="Path 294" d="M1689.886,1333.466h6.78l-1.739,12.313-6.181-.2Z" transform="translate(-1642.865 -1235.615)" fill="#575757"/>
      <path id="Path_295" data-name="Path 295" d="M1740.485,1333.466l1.3,13.8-6.157-.2-1.921-13.6Z" transform="translate(-1642.865 -1235.615)" fill="#575757"/>
      <path id="Path_296" data-name="Path 296" d="M1782.142,1348.547l-6.1-.194-2.1-14.887h6.78Z" transform="translate(-1642.865 -1235.615)" fill="#575757"/>
    </g>
    <g id="Working_Woman" data-name="Working Woman" transform="translate(145.11 62.065)">
      <g id="Group_193" data-name="Group 193" transform="translate(24.423)">
        <path id="Path_539" data-name="Path 539" d="M559.735,4016.726c0-10.743-9.475-19.447-23.683-19.447-11.808,0-15.866,6.516-15.866,6.516s-11.161,2.412-11.161,16.281v35.073h47.541v-28.884A14.957,14.957,0,0,0,559.735,4016.726Zm-22.054,31.41a12,12,0,0,1-3.208-.5v7.515H518.246v-19.334q-.166-.467-.326-.991c-7.194-.688-6.9-12.577-2.621-12.577a1.173,1.173,0,0,1,.17.014v0c17.97,5.745,30.055-3.667,34.009-10.208,0,4.564,5.051,9.015,6.848,9.42C556.061,4037.781,544.393,4048.136,537.681,4048.136Z" transform="translate(-505.537 -3997.279)" fill="#1e1e1e"/>
        <path id="Path_540" data-name="Path 540" d="M534.473,4049.4v-1.767a12,12,0,0,0,3.208.5c6.712,0,18.38-10.355,18.645-26.665-1.8-.405-6.848-4.856-6.848-9.42-3.954,6.541-16.039,15.953-34.009,10.208v0a1.173,1.173,0,0,0-.17-.014c-4.275,0-4.573,11.889,2.621,12.577q.159.524.326.991v13.006l-12.709,5.99V4070.5h42.232v-17.1l-13.3-4Z" transform="translate(-505.537 -3997.279)" fill="#fcbeb7"/>
        <path id="Path_541" data-name="Path 541" d="M547.769,4070.5v-17.1l-13.3-4v-1.767A36.811,36.811,0,0,1,523.3,4041.6Z" transform="translate(-505.537 -3997.279)" fill="#f9afab"/>
        <g id="Group_191" data-name="Group 191" transform="translate(25.509 24.614)">
          <g id="Group_189" data-name="Group 189" transform="translate(16.332)">
            <path id="Path_544" data-name="Path 544" d="M548.273,4025.356a.9.9,0,0,1-.9-.9v-1.673a.9.9,0,0,1,1.79,0v1.673A.9.9,0,0,1,548.273,4025.356Z" transform="translate(-547.378 -4021.893)" fill="#311643"/>
          </g>
          <g id="Group_190" data-name="Group 190">
            <path id="Path_545" data-name="Path 545" d="M531.941,4025.356a.9.9,0,0,1-.895-.9v-1.673a.895.895,0,1,1,1.79,0v1.673A.9.9,0,0,1,531.941,4025.356Z" transform="translate(-531.046 -4021.893)" fill="#311643"/>
          </g>
        </g>
        <g id="Group_192" data-name="Group 192" transform="translate(28.223 37.788)">
          <path id="Path_546" data-name="Path 546" d="M538.332,4038.269a5.114,5.114,0,0,1-3.345-1.149,4.581,4.581,0,0,1-1.191-1.474.411.411,0,0,1,.748-.339h0a4.182,4.182,0,0,0,4.478,2.1.411.411,0,0,1,.1.816A6.992,6.992,0,0,1,538.332,4038.269Z" transform="translate(-533.76 -4035.067)" fill="#311643"/>
        </g>
      </g>
      <path id="Path_547" data-name="Path 547" d="M565.093,4298.685l1.679,6.979,18.311,5.75-2.633-12.729Z" transform="translate(-481.114 -3997.279)" fill="#fcbeb7"/>
      <path id="Path_548" data-name="Path 548" d="M503.4,4298.685l.5,8.62-1.141.421-.752,3.691,18.293-5.753.457-6.979Z" transform="translate(-481.114 -3997.279)" fill="#fcbeb7"/>
      <path id="Path_549" data-name="Path 549" d="M599.206,4314.124l-14.886-6.4.763,3.689-18.311-5.751v5.247a5.245,5.245,0,0,0,2.482,4.458l1.574,4.5a.97.97,0,0,0,1.886-.32v-2.929l12.515,3.9h12.66a3.334,3.334,0,0,0,3.334-3.333h0A3.333,3.333,0,0,0,599.206,4314.124Z" transform="translate(-481.114 -3997.279)" fill="#242424"/>
      <path id="Path_550" data-name="Path 550" d="M520.315,4310.86l-.016-5.247-18.294,5.8.752-3.691-14.867,6.443a3.333,3.333,0,0,0-2.007,3.068h0a3.334,3.334,0,0,0,3.343,3.324l12.66-.038,12.941-4.073.009,3.066a.97.97,0,0,0,1.886.315l1.709-4.93A5.241,5.241,0,0,0,520.315,4310.86Z" transform="translate(-481.114 -3997.279)" fill="#242424"/>
      <path id="Path_551" data-name="Path 551" d="M506.167,4123.165l-6.754,28.6A89.7,89.7,0,0,0,497.131,4177l6.267,121.69h17.358l7.41-126.291,36.927,126.291H582.45l-30.561-175.52Z" transform="translate(-481.114 -3997.279)" fill="#575757"/>
      <path id="Path_552" data-name="Path 552" d="M529.133,4062.761c3.082,0,5.547-2.968,7.209-5.974H518.767C521.447,4059.785,525.119,4062.761,529.133,4062.761Z" transform="translate(-481.114 -3997.279)" fill="#fff"/>
      <path id="Path_553" data-name="Path 553" d="M562.019,4062.991A21.132,21.132,0,0,0,550.4,4054.2l-11.649-3.547a21.966,21.966,0,0,1-2.4,6.137c-1.662,3.006-4.127,5.974-7.209,5.974-4.014,0-7.686-2.976-10.366-5.974a37.817,37.817,0,0,1-4.419-6.107l-12.1,5.607a18.03,18.03,0,0,0-9.917,12.008l-8.927,35.9,16.417,0,4.028-13.941,2.32,32.905h45.722l4.154-35.022,10.891,9.8,9.035-13.234Z" transform="translate(-481.114 -3997.279)" fill="#01ab89"/>
      <path id="Path_554" data-name="Path 554" d="M627.915,4049.4l-.7-.116-.109-.426a1.915,1.915,0,0,0-1.727-1.437l-9.761-.66L608.834,4044l3.79-4.731a1.906,1.906,0,0,0-.2-2.6l-8,6.162a7.154,7.154,0,0,0-1.912,2.233l-2.2,4-.01-.013-33.371,48.881,4.585,4.189a7.732,7.732,0,0,0,12.133-2.257l21.68-43.461,7.9.751a13.733,13.733,0,0,0,5.279-.526l4.182-1.264a1.256,1.256,0,0,0,.8-1.681l2.979-.573a1.286,1.286,0,0,0,1.037-1.129l.051-.482h.182a1.059,1.059,0,0,0,1.06-1.06h0A1.059,1.059,0,0,0,627.915,4049.4Z" transform="translate(-481.114 -3997.279)" fill="#fcbeb7"/>
      <path id="Path_555" data-name="Path 555" d="M575.969,4084.705l-12.687,9.948,3.652,3.285Z" transform="translate(-481.114 -3997.279)" fill="#05a283"/>
      <path id="Path_556" data-name="Path 556" d="M529.585,4067.037a14.988,14.988,0,0,1-7.688-2.3,27.473,27.473,0,0,1-6-5.01,41.255,41.255,0,0,1-5.346-7.287l.673-.312a40.507,40.507,0,0,0,5.232,7.1,26.7,26.7,0,0,0,5.834,4.867,14.248,14.248,0,0,0,7.3,2.189,9.164,9.164,0,0,0,6.079-2.255,15.293,15.293,0,0,0,3.714-5.035,28.393,28.393,0,0,0,2.336-7.447l.723.221a28.181,28.181,0,0,1-2.388,7.553,16.051,16.051,0,0,1-3.9,5.277A9.9,9.9,0,0,1,529.585,4067.037Z" transform="translate(-481.114 -3997.28)" fill="#fff"/>
      <path id="Path_557" data-name="Path 557" d="M560.893,4061.4a5.309,5.309,0,0,1-7.912-6.23A21.131,21.131,0,0,1,560.893,4061.4Z" transform="translate(-481.114 -3997.279)" fill="#005e4b"/>
      <path id="Path_558" data-name="Path 558" d="M502.318,4059.981a5.306,5.306,0,0,1-8.45,4.274,18.016,18.016,0,0,1,7.383-7.468A5.287,5.287,0,0,1,502.318,4059.981Z" transform="translate(-481.114 -3997.279)" fill="#005e4b"/>
      <g id="Group_394" data-name="Group 394">
        <path id="Path_1146" data-name="Path 1146" d="M1.242,0H39.378a1.242,1.242,0,0,1,1.242,1.242V55.261A1.242,1.242,0,0,1,39.378,56.5H1.242A1.242,1.242,0,0,1,0,55.261V1.242A1.242,1.242,0,0,1,1.242,0Z" transform="matrix(0.999, -0.038, 0.038, 0.999, 34.529, 79.453)" fill="#747474"/>
        <path id="Path_1145" data-name="Path 1145" d="M1.242,0H39.378a1.242,1.242,0,0,1,1.242,1.242V55.261A1.242,1.242,0,0,1,39.378,56.5H1.242A1.242,1.242,0,0,1,0,55.261V1.242A1.242,1.242,0,0,1,1.242,0Z" transform="matrix(0.994, 0.107, -0.107, 0.994, 42.616, 76.648)" fill="#00edff"/>
        <path id="Path_563" data-name="Path 563" d="M520.234,4076.558l.113,28.689,3.112-28.811Z" transform="translate(-481.114 -3997.28)" fill="#818181"/>
      </g>
      <path id="Path_559" data-name="Path 559" d="M564.005,4108.774a2.676,2.676,0,0,0-.89-1.884l-.711-.637-.034-.337a2.58,2.58,0,0,0-2.441-2.322l-4.608-.225,2.428-3.749a1.073,1.073,0,0,0,.139-.849h0a1.071,1.071,0,0,0-1.61-.64l-13.123,8.279-43.336-2.209-16.419,0-1.977,7a8.034,8.034,0,0,0,8.563,10.176l53.169-5.538,15.118,2.324.674-.182a2.679,2.679,0,0,0,1.979-2.561l.009-.934.026-.012a2.677,2.677,0,0,0,1.583-2.526l-.017-.549.556-.482A2.678,2.678,0,0,0,564.005,4108.774Z" transform="translate(-481.114 -3997.279)" fill="#fcbeb7"/>
    </g>
    <g id="Books_Icon" data-name="Books Icon" transform="translate(541.114 255.264)">
      <g id="Books">
        <path id="Path_748" data-name="Path 748" d="M1722.394,4305.041v-3.65a2.043,2.043,0,0,0-2.043-2.043H1635.66a7.737,7.737,0,0,0-7.737,7.737h0v6.223h0a7.737,7.737,0,0,0,7.737,7.737h84.691a2.044,2.044,0,0,0,2.043-2.044v-3.65a2.043,2.043,0,0,0-2.043-2.043h-81.579a3.112,3.112,0,0,1-3.112-3.112h0a3.111,3.111,0,0,1,3.112-3.111h81.579A2.044,2.044,0,0,0,1722.394,4305.041Z" transform="translate(-1627.101 -4191.839)" fill="#343434"/>
        <path id="Path_749" data-name="Path 749" d="M1721.572,4239.948v-3.65a2.043,2.043,0,0,0-2.043-2.043h-84.691a7.737,7.737,0,0,0-7.737,7.737h0v6.223h0a7.737,7.737,0,0,0,7.737,7.737h84.691a2.044,2.044,0,0,0,2.043-2.044v-3.65a2.043,2.043,0,0,0-2.043-2.043H1637.95a3.112,3.112,0,0,1-3.112-3.112h0a3.111,3.111,0,0,1,3.112-3.111h81.579A2.044,2.044,0,0,0,1721.572,4239.948Z" transform="translate(-1627.101 -4191.839)" fill="#8d8b8b"/>
        <path id="Path_750" data-name="Path 750" d="M1716.343,4283.343v-3.65a2.044,2.044,0,0,0-2.043-2.044h-72.589a7.737,7.737,0,0,0-7.737,7.737h0v6.224h0a7.737,7.737,0,0,0,7.737,7.737H1714.3a2.044,2.044,0,0,0,2.043-2.044v-3.65a2.043,2.043,0,0,0-2.043-2.043h-69.478a3.112,3.112,0,0,1-3.111-3.112h0a3.111,3.111,0,0,1,3.111-3.112H1714.3A2.044,2.044,0,0,0,1716.343,4283.343Z" transform="translate(-1627.101 -4191.838)" fill="#747474"/>
        <path id="Path_751" data-name="Path 751" d="M1728.535,4218.84v-3.649a2.044,2.044,0,0,0-2.044-2.044H1653.9a7.737,7.737,0,0,0-7.737,7.737h0v6.223h0a7.737,7.737,0,0,0,7.737,7.737h72.589a2.044,2.044,0,0,0,2.044-2.043v-3.65a2.044,2.044,0,0,0-2.044-2.044h-69.477A3.112,3.112,0,0,1,1653.9,4224h0a3.112,3.112,0,0,1,3.112-3.112h69.477A2.044,2.044,0,0,0,1728.535,4218.84Z" transform="translate(-1627.101 -4191.839)" fill="#757575"/>
        <path id="Path_752" data-name="Path 752" d="M1713.652,4285.386v6.224h-68.83a3.112,3.112,0,0,1-3.111-3.112h0a3.111,3.111,0,0,1,3.111-3.112Z" transform="translate(-1627.101 -4191.838)" fill="#e5e5e5"/>
        <path id="Path_753" data-name="Path 753" d="M1707.573,4307.084v6.223h-68.829a3.112,3.112,0,0,1-3.112-3.112h0a3.111,3.111,0,0,1,3.112-3.111Z" transform="translate(-1627.101 -4191.839)" fill="#e5e5e5"/>
        <path id="Path_754" data-name="Path 754" d="M1716.343,4241.992v6.223h-78.006a3.339,3.339,0,0,1-3.527-3.112h0a3.338,3.338,0,0,1,3.527-3.111Z" transform="translate(-1627.101 -4191.839)" fill="#e5e5e5"/>
        <path id="Path_755" data-name="Path 755" d="M1725.844,4220.884v6.223h-68.83A3.112,3.112,0,0,1,1653.9,4224h0a3.112,3.112,0,0,1,3.112-3.112Z" transform="translate(-1627.101 -4191.839)" fill="#e5e5e5"/>
        <path id="Path_756" data-name="Path 756" d="M1728.535,4261.645V4258a2.044,2.044,0,0,0-2.044-2.043H1653.9a7.737,7.737,0,0,0-7.737,7.737h0v6.223h0a7.737,7.737,0,0,0,7.737,7.737h72.589a2.044,2.044,0,0,0,2.044-2.043v-3.65a2.044,2.044,0,0,0-2.044-2.044h-69.477a3.112,3.112,0,0,1-3.112-3.111h0a3.112,3.112,0,0,1,3.112-3.112h69.477A2.044,2.044,0,0,0,1728.535,4261.645Z" transform="translate(-1627.101 -4191.839)" fill="#575757"/>
        <path id="Path_757" data-name="Path 757" d="M1725.844,4263.689v6.223h-68.83a3.112,3.112,0,0,1-3.112-3.111h0a3.112,3.112,0,0,1,3.112-3.112Z" transform="translate(-1627.101 -4191.838)" fill="#e5e5e5"/>
      </g>
      <g id="Flower_Icon" data-name="Flower Icon">
        <path id="Flower_Pot" data-name="Flower Pot" d="M1689.824,4202.283h12.47a1.026,1.026,0,0,1,1.018,1.148l-1.055,8.812a1.025,1.025,0,0,1-1.018.9h-10.36a1.026,1.026,0,0,1-1.019-.9l-1.055-8.812A1.026,1.026,0,0,1,1689.824,4202.283Z" transform="translate(-1627.101 -4191.839)" fill="#cfcfcf"/>
        <path id="Flower" d="M1700.339,4198.688v-4.007l-2.4,4.555v-7.4l-1.884,4.657-1.884-4.657v7.4l-2.4-4.555v4.007l-3.493-5.616,1.539,9.212h12.47l1.539-9.212Z" transform="translate(-1627.101 -4191.839)" fill="#00e8b9"/>
      </g>
    </g>
    <g id="Working_Man" data-name="Working Man" transform="translate(421.954 136.555)">
      <g id="Chair" transform="translate(30.79 67.786)">
        <path id="Path_427" data-name="Path 427" d="M814.149,3529.56l10.244,84.923h3.359l-10.243-84.923Z" transform="translate(-768.882 -3434.131)" fill="#9b9b9b"/>
        <path id="Path_428" data-name="Path 428" d="M859.416,3529.559l1.152,9.551,9.091,75.373h3.36l-9.136-75.746-1.107-9.178Z" transform="translate(-768.882 -3434.131)" fill="#9b9b9b"/>
        <path id="Path_429" data-name="Path 429" d="M814.149,3614.482h3.36l1.416-11.745,1.68-13.926L826.131,3543l1.622-13.446h-3.36l-1.668,13.83-3.8,31.495-1.68,13.926Z" transform="translate(-768.882 -3434.131)" fill="#9b9b9b"/>
        <path id="Path_430" data-name="Path 430" d="M768.882,3614.482h3.36l7.95-65.916h0l2.292-19.008h-3.36l-2.337,19.375Z" transform="translate(-768.882 -3434.131)" fill="#9b9b9b"/>
        <path id="Path_1156" data-name="Path 1156" d="M0,0H3.36V51.37H0Z" transform="translate(90.37 38.659)" fill="#9b9b9b"/>
        <path id="Path_1157" data-name="Path 1157" d="M0,0H3.359V51.37H0Z" transform="translate(44.719 38.659)" fill="#9b9b9b"/>
        <path id="Path_431" data-name="Path 431" d="M777.715,3524.16h46.159a2.7,2.7,0,0,0-2.7,2.7h0a2.7,2.7,0,0,0,2.7,2.7H777.715a2.7,2.7,0,0,1-2.7-2.7h0A2.7,2.7,0,0,1,777.715,3524.16Z" transform="translate(-768.882 -3434.131)" fill="#434343"/>
        <path id="Path_432" data-name="Path 432" d="M821.175,3526.859h0a2.7,2.7,0,0,1,2.7-2.7h39.855a2.7,2.7,0,0,1,2.7,2.7h0a2.7,2.7,0,0,1-2.7,2.7H823.874A2.7,2.7,0,0,1,821.175,3526.859Z" transform="translate(-768.882 -3434.131)" fill="#575757"/>
        <path id="Path_1155" data-name="Path 1155" d="M3.763,0h54.5a3.763,3.763,0,0,1,3.763,3.763V34.9a3.763,3.763,0,0,1-3.763,3.763H3.763A3.763,3.763,0,0,1,0,34.9V3.763A3.763,3.763,0,0,1,3.763,0Z" transform="translate(38.211)" fill="#9b9b9b"/>
        <path id="Path_433" data-name="Path 433" d="M859.416,3529.559l1.153,9.551,3.314-.374-1.107-9.177Z" transform="translate(-768.882 -3434.131)" fill="#717171"/>
        <path id="Path_434" data-name="Path 434" d="M824.392,3529.559l-1.668,13.829,3.407-.384,1.621-13.445Z" transform="translate(-768.882 -3434.131)" fill="#717171"/>
        <path id="Path_435" data-name="Path 435" d="M776.789,3548.934l3.4-.367h0l2.292-19.008h-3.36Z" transform="translate(-768.882 -3434.131)" fill="#717171"/>
        <path id="Path_436" data-name="Path 436" d="M862.612,3472.79h-3.36v7.095l3.36-.372Z" transform="translate(-768.882 -3434.131)" fill="#aec3ff"/>
        <path id="Path_437" data-name="Path 437" d="M813.6,3472.79v12.148l3.359-.372V3472.79Z" transform="translate(-768.882 -3434.131)" fill="#aec3ff"/>
      </g>
      <g id="Man">
        <g id="Male_Head" data-name="Male Head" transform="translate(56.05)">
          <g id="Male_Head-2" data-name="Male Head">
            <path id="Male_Face_Skin" data-name="Male Face Skin" d="M795.409,3392.431c1.247,15.132,12.24,24.617,18.691,24.617a11.959,11.959,0,0,0,3.122-.475v7.547h16.362v-19.188c.151-.4.3-.837.441-1.307,7.254-.693,6.953-12.681,2.643-12.681-.784,0-1.308.741-1.638,1.488l-1.07,1.07v-5.416s-2.408.225-7.147-7c-2.045,3.1-18.355,7.974-31.445,5.792C795.368,3386.882,795.334,3389.576,795.409,3392.431Z" transform="translate(-794.142 -3366.345)" fill="#c6756c"/>
            <path id="Right_Eye" data-name="Right Eye" d="M820.08,3396.562a.9.9,0,0,0,.9-.9v-1.686a.9.9,0,1,0-1.8,0v1.686A.9.9,0,0,0,820.08,3396.562Z" transform="translate(-794.142 -3366.345)" fill="#311643"/>
            <path id="Left_Eye" data-name="Left Eye" d="M803.342,3396.562a.9.9,0,0,0,.9-.9v-1.686a.9.9,0,0,0-1.806,0v1.686A.9.9,0,0,0,803.342,3396.562Z" transform="translate(-794.142 -3366.345)" fill="#311643"/>
            <path id="Mouth" d="M813.443,3407.1a5.159,5.159,0,0,0,3.373-1.158,4.608,4.608,0,0,0,1.2-1.487.414.414,0,0,0-.754-.341h0a4.219,4.219,0,0,1-4.516,2.118.414.414,0,1,0-.1.822A6.869,6.869,0,0,0,813.443,3407.1Z" transform="translate(-794.142 -3366.345)" fill="#311643"/>
            <path id="Neck_Shadow" data-name="Neck Shadow" d="M817.222,3424.12v-7.547a36.454,36.454,0,0,0,11.078-5.883Z" transform="translate(-794.142 -3366.345)" fill="#a8483d"/>
            <path id="Male_Hair" data-name="Male Hair" d="M815.228,3366.345c11.284,0,13.541,6.018,13.541,6.018,4.815,0,12.187,8.8,7.749,18.581l-.023.023-2.535,2.535v-5.416s-2.408.225-7.147-7c-2.045,3.1-18.355,7.974-31.445,5.792,0,0-.034,2.694.041,5.549v.009C790.52,3378.3,800.333,3366.345,815.228,3366.345Z" transform="translate(-794.142 -3366.345)" fill="#1e1e1e"/>
          </g>
          <path id="Glasses" d="M797.017,3392.333a6.324,6.324,0,0,0,12.644.239,4.132,4.132,0,0,1,4.1-.005,6.316,6.316,0,1,0,.031-.914,4.862,4.862,0,0,0-4.161,0,6.325,6.325,0,0,0-12.614.677Zm17.565,0a5.5,5.5,0,1,1,5.5,5.5A5.5,5.5,0,0,1,814.582,3392.333Zm-16.738,0a5.5,5.5,0,1,1,5.5,5.5A5.5,5.5,0,0,1,797.844,3392.333Z" transform="translate(-794.142 -3366.345)" fill="#fff"/>
        </g>
        <path id="Path_446" data-name="Path 446" d="M770.733,3553.13l3.416-.468,3.235-26.822h-3.36Z" transform="translate(-738.092 -3366.345)" fill="#ebedf4"/>
        <path id="Path_447" data-name="Path 447" d="M852.556,3455.563" transform="translate(-738.092 -3366.345)" fill="#fcbeb7"/>
        <path id="Path_448" data-name="Path 448" d="M779.807,3450.631l-2.967,5.688h15.814Z" transform="translate(-738.092 -3366.345)" fill="#c6756c"/>
        <path id="Path_449" data-name="Path 449" d="M810.1,3599.651V3611.9a2.586,2.586,0,0,1-2.586,2.586H772.777a.6.6,0,0,1-.6-.6v-2.257a2.786,2.786,0,0,1,1.625-2.532l20.085-9.444Z" transform="translate(-738.092 -3366.345)" fill="#242424"/>
        <path id="Path_450" data-name="Path 450" d="M810.1,3592.684l-.008,6.967h-16.2l-1.12-6.967Z" transform="translate(-738.092 -3366.345)" fill="#c6756c"/>
        <path id="Path_451" data-name="Path 451" d="M817.25,3417l-21.993,9.935a14.422,14.422,0,0,0-6.967,6.7l-8.483,16.992,12.847,5.688-1.064,37.56h64.019l-2.795-35.079,11.578.075v-19.193a14.734,14.734,0,0,0-9.058-13.6L833.583,3417S824.081,3423.238,817.25,3417Z" transform="translate(-738.092 -3366.345)" fill="#3a3a3a"/>
        <path id="Path_452" data-name="Path 452" d="M811.987,3419.287a19.188,19.188,0,0,0,12.4,4.493,19.871,19.871,0,0,0,13.139-5.134l-.7-.292a19.052,19.052,0,0,1-12.439,4.764,18.535,18.535,0,0,1-11.713-4.127Z" transform="translate(-738.091 -3366.345)" fill="#fff"/>
        <path id="Path_453" data-name="Path 453" d="M776.01,3599.651V3611.9a2.585,2.585,0,0,1-2.585,2.586H738.691a.6.6,0,0,1-.6-.6v-2.257a2.785,2.785,0,0,1,1.626-2.532l20.084-9.444Z" transform="translate(-738.092 -3366.345)" fill="#242424"/>
        <path id="Path_454" data-name="Path 454" d="M776.01,3592.684l-.008,6.967H759.8l-1.12-6.967Z" transform="translate(-738.092 -3366.345)" fill="#c6756c"/>
        <path id="Path_455" data-name="Path 455" d="M821.525,3493.879v.655a29.771,29.771,0,0,1-29.772,29.794h-13.83l-1.914,68.356H758.682l-12.777-81.5a14.982,14.982,0,0,1,14.8-17.3Z" transform="translate(-738.092 -3366.345)" fill="#00edff"/>
        <path id="Path_456" data-name="Path 456" d="M745.721,3508.9a8.294,8.294,0,1,0,7.39-12.954A15,15,0,0,0,745.721,3508.9Z" transform="translate(-738.092 -3366.345)" fill="#00edff"/>
        <path id="Path_457" data-name="Path 457" d="M779.809,3508.577l-1.885,15.751h11.347Z" transform="translate(-738.092 -3366.345)" fill="#008b6e"/>
        <path id="Path_458" data-name="Path 458" d="M855.612,3493.879v.655a29.771,29.771,0,0,1-29.771,29.794H812.01l-1.913,68.356H792.768l-12.777-81.5a14.982,14.982,0,0,1,14.8-17.3Z" transform="translate(-738.092 -3366.345)" fill="#00edff"/>
        <path id="Path_459" data-name="Path 459" d="M864.392,3458.875l-.616,21.273a10.631,10.631,0,0,1-10.627,10.324H816.118l-2.486-8.661,32.664-5.384.231-17.668Z" transform="translate(-738.092 -3366.345)" fill="#c6756c"/>
        <path id="Path_460" data-name="Path 460" d="M853.41,3486.048a5.479,5.479,0,0,0,1.947,4.194,10.643,10.643,0,0,0,7.995-7.409,5.49,5.49,0,0,0-9.942,3.215Z" transform="translate(-738.092 -3366.345)" fill="#c6756c"/>
        <path id="Path_461" data-name="Path 461" d="M846.527,3458.76l-5.015,18.456,4.784-.789.231-17.668" transform="translate(-738.092 -3366.345)" fill="#242424"/>
        <path id="Path_462" data-name="Path 462" d="M818.2,3481.059l5.838,9.413h-7.915l-2.486-8.661Z" transform="translate(-738.092 -3366.345)" fill="#c6756c"/>
        <path id="Path_464" data-name="Path 464" d="M779.809,3508.577a8.294,8.294,0,1,0,7.406-12.646A15,15,0,0,0,779.809,3508.577Z" transform="translate(-738.092 -3366.345)" fill="#00edff"/>
        <path id="Path_465" data-name="Path 465" d="M854.679,3433.9a4.857,4.857,0,0,0,9.241,2.09,14.731,14.731,0,0,0-4.061-6.935c-.107-.008-.215-.011-.323-.011A4.857,4.857,0,0,0,854.679,3433.9Z" transform="translate(-738.092 -3366.345)"/>
        <path id="Path_466" data-name="Path 466" d="M788.59,3433.07a4.857,4.857,0,0,0,7.009-6.288l-.342.155A14.413,14.413,0,0,0,788.59,3433.07Z" transform="translate(-738.092 -3366.345)" fill="#0c0c0c"/>
      </g>
      <g id="Laptop">
        <path id="Path_463" data-name="Path 463" d="M754.562,3456.319h48.286a4.6,4.6,0,0,1,4.422,3.331l8.848,30.822H835.7a1.7,1.7,0,1,1,0,3.407h-76.46l-9.1-31.69A4.6,4.6,0,0,1,754.562,3456.319Z" transform="translate(-738.092 -3366.345)" fill="#8e8e8e"/>
        <path id="Path_1158" data-name="Path 1158" d="M1.792,0c.99,0,1.792,1.171,1.792,2.616s-.8,2.616-1.792,2.616S0,4.061,0,2.616.8,0,1.792,0Z" transform="matrix(0.996, -0.088, 0.088, 0.996, 40.976, 107.525)" fill="#575757"/>
      </g>
    </g>
    <g id="Box" transform="translate(270.213 319.682)">
      <path id="Path_1159" data-name="Path 1159" d="M0,0H26.839V23.258H0Z" transform="matrix(0.992, -0.125, 0.125, 0.992, 26.189, 6.461)" fill="#00edff"/>
      <path id="Path_1160" data-name="Path 1160" d="M0,0H26.839V23.258H0Z" transform="matrix(0.9, 0.436, -0.436, 0.9, 54.179, 0)" fill="#00e8b9"/>
      <path id="Path_1161" data-name="Path 1161" d="M0,0H47.259V47.259H0Z" transform="translate(39.556 13.137)" fill="#cbcbcb"/>
      <path id="Path_1079" data-name="Path 1079" d="M0,0H26.033V47.259H0Z" transform="translate(13.523 13.137)" fill="#717171"/>
      <path id="Path_266" data-name="Path 266" d="M1145.091,1358.355l-13.523,14.486h29.373l10.183-14.486Z" transform="translate(-1131.568 -1345.218)" fill="#8d8c8c"/>
      <path id="Path_267" data-name="Path 267" d="M1218.383,1358.355l9.652,14.673h-47.19l-9.721-14.743Z" transform="translate(-1131.568 -1345.218)" fill="#989797"/>
      <path id="Path_268" data-name="Path 268" d="M1181.15,1348.73l-1.9,9.57,5.135-9.978Z" transform="translate(-1131.568 -1345.218)" fill="#028791"/>
    </g>
  </g>
</svg>
