<svg xmlns="http://www.w3.org/2000/svg" width="44.6" height="44.6" viewBox="0 0 44.6 44.6">
  <g id="Path_1107" data-name="Path 1107" transform="translate(2.3 2.3)" fill="none" stroke-linecap="round" stroke-linejoin="round" stroke-dasharray="11 8">
    <path d="M0,0H40V40H0Z" stroke="none"/>
    <path d="M 0 -2.299999237060547 L 11 -2.299999237060547 C 11.63512992858887 -2.299999237060547 12.14999961853027 -1.785129547119141 12.14999961853027 -1.150001525878906 C 12.14999961853027 -0.5148696899414062 11.63512992858887 0 11 0 C 11 0 0 0 0 0 C 0 0 0 0 0 0 C 0 0 0 8 0 8 C 0 8.635129928588867 -0.5148696899414062 9.149999618530273 -1.150001525878906 9.149999618530273 C -1.785129547119141 9.149999618530273 -2.299999237060547 8.635129928588867 -2.299999237060547 8 L -2.299999237060547 0 C -2.299999237060547 -0.6351318359375 -1.785129547119141 -1.150001525878906 -1.150001525878906 -1.150001525878906 C -1.150001525878906 -1.150001525878906 -1.150001525878906 -1.150001525878906 -1.150001525878906 -1.150001525878906 C -1.150001525878906 -1.785129547119141 -0.6351318359375 -2.299999237060547 0 -2.299999237060547 Z M 19 -2.299999237060547 L 30 -2.299999237060547 C 30.63512992858887 -2.299999237060547 31.14999961853027 -1.785129547119141 31.14999961853027 -1.150001525878906 C 31.14999961853027 -0.5148696899414062 30.63512992858887 0 30 0 C 30 0 19 0 19 0 C 18.36487007141113 0 17.85000038146973 -0.5148696899414062 17.85000038146973 -1.150001525878906 C 17.85000038146973 -1.785129547119141 18.36487007141113 -2.299999237060547 19 -2.299999237060547 Z M 38 -2.299999237060547 L 40 -2.299999237060547 C 41.27024841308594 -2.299999237060547 42.29999923706055 -1.270248413085938 42.29999923706055 0 L 42.29999923706055 9 C 42.29999923706055 9.635129928588867 41.78512954711914 10.14999961853027 41.15000152587891 10.14999961853027 C 40.51486968994141 10.14999961853027 40 9.635129928588867 40 9 L 40 0 C 40 0 40 0 40 0 C 40 0 38 0 38 0 C 37.3648681640625 0 36.84999847412109 -0.5148696899414062 36.84999847412109 -1.150001525878906 C 36.84999847412109 -1.785129547119141 37.3648681640625 -2.299999237060547 38 -2.299999237060547 Z M 41.15000152587891 15.85000038146973 C 41.78512954711914 15.85000038146973 42.29999923706055 16.36487007141113 42.29999923706055 17 L 42.29999923706055 28 C 42.29999923706055 28.63512992858887 41.78512954711914 29.14999961853027 41.15000152587891 29.14999961853027 C 40.51486968994141 29.14999961853027 40 28.63512992858887 40 28 L 40 17 C 40 16.36487007141113 40.51486968994141 15.85000038146973 41.15000152587891 15.85000038146973 Z M 41.15000152587891 34.84999847412109 C 41.78512954711914 34.84999847412109 42.29999923706055 35.3648681640625 42.29999923706055 36 L 42.29999923706055 40 C 42.29999923706055 41.27024841308594 41.27024841308594 42.29999923706055 40 42.29999923706055 L 33 42.29999923706055 C 32.3648681640625 42.29999923706055 31.85000038146973 41.78512954711914 31.85000038146973 41.15000152587891 C 31.85000038146973 40.51486968994141 32.3648681640625 40 33 40 L 40 40 L 40 36 C 40 35.3648681640625 40.51486968994141 34.84999847412109 41.15000152587891 34.84999847412109 Z M 14 40 L 25 40 C 25.63512992858887 40 26.14999961853027 40.51486968994141 26.14999961853027 41.15000152587891 C 26.14999961853027 41.78512954711914 25.63512992858887 42.29999923706055 25 42.29999923706055 L 14 42.29999923706055 C 13.36487007141113 42.29999923706055 12.85000038146973 41.78512954711914 12.85000038146973 41.15000152587891 C 12.85000038146973 40.51486968994141 13.36487007141113 40 14 40 Z M -1.150001525878906 33.84999847412109 C -0.5148696899414062 33.84999847412109 0 34.3648681640625 0 35 C 0 35 0 40 0 40 C 0 40 0 40 0 40 L 6 40 C 6.6351318359375 40 7.150001525878906 40.51486968994141 7.150001525878906 41.15000152587891 C 7.150001525878906 41.78512954711914 6.6351318359375 42.29999923706055 6 42.29999923706055 L 0 42.29999923706055 C -1.270248413085938 42.29999923706055 -2.299999237060547 41.27024841308594 -2.299999237060547 40 L -2.299999237060547 35 C -2.299999237060547 34.3648681640625 -1.785129547119141 33.84999847412109 -1.150001525878906 33.84999847412109 Z M -1.150001525878906 14.85000038146973 C -0.5148696899414062 14.85000038146973 0 15.36487007141113 0 16 C 0 16 0 27 0 27 C 0 27.63512992858887 -0.5148696899414062 28.14999961853027 -1.150001525878906 28.14999961853027 C -1.785129547119141 28.14999961853027 -2.299999237060547 27.63512992858887 -2.299999237060547 27 L -2.299999237060547 16 C -2.299999237060547 15.36487007141113 -1.785129547119141 14.85000038146973 -1.150001525878906 14.85000038146973 Z" stroke="none" fill="#00edff"/>
  </g>
</svg>
