<svg id="Component_6_1" data-name="Component 6 – 1" xmlns="http://www.w3.org/2000/svg" width="77.719" height="75.667" viewBox="0 0 77.719 75.667">
  <g id="Path_1080" data-name="Path 1080" fill="none" stroke-linejoin="round" stroke-dasharray="16 6">
    <path d="M3.339,0H66.781A3.456,3.456,0,0,1,70.12,3.561V64.106a3.456,3.456,0,0,1-3.339,3.561H3.339A3.456,3.456,0,0,1,0,64.106V3.561A3.456,3.456,0,0,1,3.339,0Z" stroke="none"/>
    <path d="M 3.339042663574219 0 L 19.33904647827148 0 L 19.33904647827148 2.599998474121094 L 3.339042663574219 2.599998474121094 L 3.339042663574219 0 C 3.339042663574219 0 3.339042663574219 0 3.339042663574219 0 Z M 25.33904647827148 0 L 41.33904647827148 0 L 41.33904647827148 2.599998474121094 L 25.33904647827148 2.599998474121094 L 25.33904647827148 0 Z M 47.33904647827148 0 L 63.33904647827148 0 L 63.33904647827148 2.599998474121094 L 47.33904647827148 2.599998474121094 L 47.33904647827148 0 Z M 69.07455444335938 0.9731674194335938 C 69.49195861816406 1.39410400390625 69.80758666992188 1.928657531738281 69.97795104980469 2.530448913574219 C 69.97798156738281 2.530555725097656 69.97804260253906 2.530776977539062 69.97807312011719 2.5308837890625 C 69.97853851318359 2.53253173828125 69.97902679443359 2.534263610839844 69.9794921875 2.535903930664062 C 69.97955322265625 2.536125183105469 69.97953033447266 2.536056518554688 69.97959136962891 2.536270141601562 C 69.98007202148438 2.537971496582031 69.98052978515625 2.539604187011719 69.98100280761719 2.541305541992188 C 69.98103332519531 2.541412353515625 69.98109436035156 2.541618347167969 69.98112487792969 2.541725158691406 C 69.98159790039062 2.543426513671875 69.9820556640625 2.545059204101562 69.98252868652344 2.546760559082031 C 69.98258972167969 2.546974182128906 69.98257446289062 2.546943664550781 69.98263549804688 2.547157287597656 C 69.98309326171875 2.548805236816406 69.98352813720703 2.550369262695312 69.98398590087891 2.552017211914062 C 69.98407745361328 2.552345275878906 69.98409271240234 2.552413940429688 69.98418426513672 2.552742004394531 C 69.98462677001953 2.554336547851562 69.98506927490234 2.555931091308594 69.98550415039062 2.557525634765625 C 69.98556518554688 2.557746887207031 69.98560333251953 2.557891845703125 69.98566436767578 2.55810546875 C 69.98611450195312 2.55975341796875 69.98656463623047 2.5614013671875 69.98701477050781 2.563056945800781 C 69.98704528808594 2.563163757324219 69.98710632324219 2.563369750976562 69.98713684082031 2.563484191894531 C 69.98760223388672 2.565185546875 69.98805999755859 2.566886901855469 69.988525390625 2.568588256835938 C 69.98855590820312 2.568702697753906 69.98857879638672 2.568778991699219 69.98860931396484 2.568885803222656 C 69.98907470703125 2.570594787597656 69.98954010009766 2.57232666015625 69.98999786376953 2.57403564453125 C 69.99002838134766 2.574142456054688 69.99005889892578 2.574234008789062 69.99008178710938 2.574348449707031 C 69.99695587158203 2.599807739257812 70.00357818603516 2.625411987304688 70.00992584228516 2.651107788085938 C 70.00995635986328 2.651214599609375 70.00994110107422 2.651161193847656 70.00997161865234 2.651275634765625 C 70.01039123535156 2.652999877929688 70.01084899902344 2.654838562011719 70.01126861572266 2.656562805175781 C 70.01129913330078 2.65667724609375 70.01134490966797 2.656845092773438 70.01136779785156 2.656959533691406 C 70.01177978515625 2.65863037109375 70.01219177246094 2.660316467285156 70.01259613037109 2.6619873046875 C 70.01264953613281 2.662208557128906 70.01271057128906 2.662445068359375 70.01276397705078 2.662666320800781 C 70.01316070556641 2.664276123046875 70.01355743408203 2.665916442871094 70.01394653320312 2.667526245117188 C 70.01399993896484 2.667747497558594 70.01403045654297 2.667869567871094 70.01408386230469 2.6680908203125 C 70.01447296142578 2.669700622558594 70.01487731933594 2.671363830566406 70.01526641845703 2.672981262207031 C 70.01531982421875 2.673202514648438 70.01538848876953 2.673507690429688 70.01544189453125 2.673728942871094 C 70.01581573486328 2.675285339355469 70.01619720458984 2.676849365234375 70.01656341552734 2.67840576171875 C 70.01664733886719 2.678741455078125 70.01671600341797 2.679023742675781 70.01679229736328 2.679359436035156 C 70.01715087890625 2.680854797363281 70.01749420166016 2.682281494140625 70.01784515380859 2.683784484863281 C 70.01795196533203 2.684226989746094 70.01803588867188 2.684577941894531 70.01814270019531 2.685028076171875 C 70.01848602294922 2.686470031738281 70.01882171630859 2.687896728515625 70.0191650390625 2.689338684082031 C 70.01924133300781 2.689674377441406 70.01934051513672 2.690086364746094 70.01941680908203 2.690422058105469 C 70.01976776123047 2.691925048828125 70.02010345458984 2.693344116210938 70.02045440673828 2.694847106933594 C 70.02056121826172 2.695289611816406 70.02061462402344 2.695510864257812 70.02071380615234 2.695953369140625 C 70.02107238769531 2.697456359863281 70.02140808105469 2.698890686035156 70.02175140380859 2.700393676757812 C 70.02183532714844 2.700729370117188 70.02191162109375 2.701080322265625 70.02199554443359 2.701416015625 C 70.02233123779297 2.702865600585938 70.02267456054688 2.704353332519531 70.02301025390625 2.705802917480469 C 70.02310943603516 2.706245422363281 70.02318572998047 2.706581115722656 70.02329254150391 2.707023620605469 C 70.02362060546875 2.708473205566406 70.02397155761719 2.709976196289062 70.02429962158203 2.711418151855469 C 70.02438354492188 2.711753845214844 70.02445983886719 2.71209716796875 70.0245361328125 2.712432861328125 C 70.02487945556641 2.713935852050781 70.02522277832031 2.715446472167969 70.02556610107422 2.716949462890625 C 70.02564239501953 2.71728515625 70.02572631835938 2.7176513671875 70.02580261230469 2.717987060546875 C 70.02614593505859 2.719490051269531 70.02648162841797 2.720985412597656 70.02682495117188 2.722488403320312 C 70.02690124511719 2.722824096679688 70.0269775390625 2.72314453125 70.02705383300781 2.723480224609375 C 70.02738189697266 2.724929809570312 70.02771759033203 2.726448059082031 70.02804565429688 2.727897644042969 C 70.02814483642578 2.728347778320312 70.02821350097656 2.728630065917969 70.02831268310547 2.729080200195312 C 70.02866363525391 2.730644226074219 70.02900695800781 2.732162475585938 70.02935028076172 2.733734130859375 C 70.02942657470703 2.73406982421875 70.02944183349609 2.734130859375 70.02951812744141 2.734466552734375 C 70.02987670898438 2.736091613769531 70.03022003173828 2.737632751464844 70.03057861328125 2.7392578125 C 70.03063201904297 2.739479064941406 70.03070831298828 2.739814758300781 70.03075408935547 2.740043640136719 C 70.0311279296875 2.741722106933594 70.03150177001953 2.743431091308594 70.03187561035156 2.7451171875 C 70.03189849853516 2.745223999023438 70.03193664550781 2.745391845703125 70.03195953369141 2.745498657226562 C 70.03235626220703 2.747299194335938 70.03273773193359 2.749061584472656 70.03313446044922 2.750862121582031 C 70.03315734863281 2.7509765625 70.03314971923828 2.750923156738281 70.03317260742188 2.75103759765625 C 70.03640747070312 2.765853881835938 70.03955841064453 2.780731201171875 70.04261779785156 2.795623779296875 C 70.04266357421875 2.795845031738281 70.04271697998047 2.796104431152344 70.04276275634766 2.796333312988281 C 70.04309844970703 2.797966003417969 70.04341888427734 2.799545288085938 70.04375457763672 2.801185607910156 C 70.04380035400391 2.801406860351562 70.04388427734375 2.801834106445312 70.04393005371094 2.802055358886719 C 70.04424285888672 2.803581237792969 70.0445556640625 2.80511474609375 70.04486083984375 2.806632995605469 C 70.04495239257812 2.807083129882812 70.04505157470703 2.807579040527344 70.04514312744141 2.808029174804688 C 70.04542541503906 2.809432983398438 70.04569244384766 2.810745239257812 70.04597473144531 2.812149047851562 C 70.04608154296875 2.812713623046875 70.04618072509766 2.813179016113281 70.04628753662109 2.813743591308594 C 70.04654693603516 2.815025329589844 70.04681396484375 2.816360473632812 70.04707336425781 2.817642211914062 C 70.04718017578125 2.818206787109375 70.04730224609375 2.818801879882812 70.04741668701172 2.819366455078125 C 70.04766845703125 2.820655822753906 70.04793548583984 2.821975708007812 70.04818725585938 2.823265075683594 C 70.04827880859375 2.823722839355469 70.04840850830078 2.82440185546875 70.04850006103516 2.824851989746094 C 70.04875183105469 2.826141357421875 70.04902648925781 2.8275146484375 70.04927825927734 2.828804016113281 C 70.04938507080078 2.829368591308594 70.04949188232422 2.829910278320312 70.04960632324219 2.830474853515625 C 70.04985809326172 2.831764221191406 70.05010223388672 2.833045959472656 70.05035400390625 2.834335327148438 C 70.05049133300781 2.835014343261719 70.05056762695312 2.835418701171875 70.05069732666016 2.836097717285156 C 70.05094909667969 2.837387084960938 70.05118560791016 2.838615417480469 70.05143737792969 2.83990478515625 C 70.05154418945312 2.840469360351562 70.05165863037109 2.841056823730469 70.05176544189453 2.841621398925781 C 70.05201721191406 2.842918395996094 70.05226898193359 2.844223022460938 70.05251312255859 2.84552001953125 C 70.05261993408203 2.846084594726562 70.05272674560547 2.846641540527344 70.05283355712891 2.847213745117188 C 70.05308532714844 2.848503112792969 70.05331420898438 2.8497314453125 70.05355834960938 2.851020812988281 C 70.05367279052734 2.851585388183594 70.05379486083984 2.852256774902344 70.05390167236328 2.852821350097656 C 70.05414581298828 2.854118347167969 70.05438232421875 2.855354309082031 70.05462646484375 2.856651306152344 C 70.05473327636719 2.857215881347656 70.05484008789062 2.857795715332031 70.05494689941406 2.858367919921875 C 70.05519104003906 2.859657287597656 70.055419921875 2.860870361328125 70.05565643310547 2.862167358398438 C 70.0557861328125 2.862846374511719 70.05587005615234 2.863304138183594 70.05599975585938 2.863983154296875 C 70.05623626708984 2.865272521972656 70.05647277832031 2.86651611328125 70.05670928955078 2.867813110351562 C 70.05681610107422 2.868377685546875 70.05692291259766 2.868972778320312 70.05702972412109 2.869544982910156 C 70.05726623535156 2.870834350585938 70.05751037597656 2.872146606445312 70.05774688720703 2.873443603515625 C 70.05785369873047 2.874008178710938 70.05794525146484 2.87451171875 70.05804443359375 2.875083923339844 C 70.05829620361328 2.876434326171875 70.05854034423828 2.877784729003906 70.05878448486328 2.879142761230469 C 70.05889129638672 2.879707336425781 70.0589599609375 2.880088806152344 70.05905914306641 2.880653381347656 C 70.05931091308594 2.882011413574219 70.05955505371094 2.883384704589844 70.05979919433594 2.884735107421875 C 70.05988311767578 2.88519287109375 70.05998992919922 2.885795593261719 70.06007385253906 2.886245727539062 C 70.06032562255859 2.887664794921875 70.06057739257812 2.889030456542969 70.06082916259766 2.890449523925781 C 70.06090545654297 2.890899658203125 70.06099700927734 2.891380310058594 70.06107330322266 2.891838073730469 C 70.06132507324219 2.89324951171875 70.06157684326172 2.894660949707031 70.06182861328125 2.896080017089844 C 70.06191253662109 2.896537780761719 70.06198883056641 2.896980285644531 70.06206512451172 2.897430419921875 C 70.06233978271484 2.898963928222656 70.06258392333984 2.900344848632812 70.06285095214844 2.901878356933594 C 70.06291198730469 2.9022216796875 70.06299591064453 2.902679443359375 70.06304931640625 2.903022766113281 C 70.06332397460938 2.904556274414062 70.06358337402344 2.90606689453125 70.06385040283203 2.907608032226562 C 70.06391143798828 2.907943725585938 70.06397247314453 2.908294677734375 70.06403350830078 2.90863037109375 C 70.06433868408203 2.910408020019531 70.06465148925781 2.912223815917969 70.06495666503906 2.913993835449219 C 70.06497955322266 2.914108276367188 70.06497192382812 2.914077758789062 70.06499481201172 2.914192199707031 C 70.06629180908203 2.9217529296875 70.06756591796875 2.929298400878906 70.06882476806641 2.936874389648438 C 70.06884765625 2.936988830566406 70.06883239746094 2.936920166015625 70.06885528564453 2.937034606933594 C 70.06914520263672 2.938812255859375 70.0694580078125 2.940696716308594 70.06974792480469 2.942474365234375 C 70.06980895996094 2.942817687988281 70.06984710693359 2.943077087402344 70.06990814208984 2.94342041015625 C 70.07014465332031 2.944900512695312 70.07041168212891 2.946517944335938 70.07065582275391 2.947998046875 C 70.07072448730469 2.948455810546875 70.07085418701172 2.949211120605469 70.0709228515625 2.949668884277344 C 70.07113647460938 2.950973510742188 70.07135009765625 2.952301025390625 70.07156372070312 2.953605651855469 C 70.0716552734375 2.954177856445312 70.07176208496094 2.954872131347656 70.07186126708984 2.9554443359375 C 70.07206726074219 2.956748962402344 70.07225799560547 2.957916259765625 70.07246398925781 2.959220886230469 C 70.07257080078125 2.959915161132812 70.07264709472656 2.960365295410156 70.07275390625 2.961051940917969 C 70.07295227050781 2.962295532226562 70.07316589355469 2.963623046875 70.0733642578125 2.964874267578125 C 70.07344818115234 2.965446472167969 70.07356262207031 2.966148376464844 70.07365417480469 2.966720581054688 C 70.0738525390625 2.967971801757812 70.07404327392578 2.969223022460938 70.07424163818359 2.970474243164062 C 70.07434844970703 2.971160888671875 70.07444000244141 2.971733093261719 70.07454681396484 2.972419738769531 C 70.07472991943359 2.973609924316406 70.07492828369141 2.974876403808594 70.07511138916016 2.976066589355469 C 70.07521820068359 2.976753234863281 70.07533264160156 2.977508544921875 70.075439453125 2.978195190429688 C 70.07561492919922 2.979324340820312 70.07579803466797 2.980522155761719 70.07597351074219 2.981651306152344 C 70.07609558105469 2.982452392578125 70.07618713378906 2.983055114746094 70.07631683349609 2.983863830566406 C 70.07648468017578 2.984992980957031 70.07666015625 2.986114501953125 70.07682800292969 2.98724365234375 C 70.07693481445312 2.987937927246094 70.07707977294922 2.9888916015625 70.07718658447266 2.989578247070312 C 70.07734680175781 2.990646362304688 70.07752227783203 2.991806030273438 70.07768249511719 2.992874145507812 C 70.07780456542969 2.993682861328125 70.07790374755859 2.994361877441406 70.07802581787109 2.995162963867188 C 70.07819366455078 2.996292114257812 70.07835388183594 2.997360229492188 70.07852172851562 2.998489379882812 C 70.07864379882812 2.999298095703125 70.07875823974609 3.000068664550781 70.07887268066406 3.000869750976562 C 70.07903289794922 3.001945495605469 70.07920074462891 3.003067016601562 70.07936096191406 3.004142761230469 C 70.07946014404297 3.004829406738281 70.07959747314453 3.005744934082031 70.07969665527344 3.006439208984375 C 70.07986450195312 3.007568359375 70.08002471923828 3.008689880371094 70.08019256591797 3.00982666015625 C 70.08030700683594 3.010627746582031 70.08040618896484 3.011283874511719 70.08052062988281 3.0120849609375 C 70.08068084716797 3.013221740722656 70.08085632324219 3.014396667480469 70.08101654052734 3.015533447265625 C 70.08111572265625 3.016227722167969 70.08122253417969 3.016944885253906 70.08132171630859 3.01763916015625 C 70.08148956298828 3.018829345703125 70.0816650390625 3.020027160644531 70.08183288574219 3.021224975585938 C 70.08193206787109 3.02191162109375 70.08203887939453 3.02264404296875 70.08213806152344 3.023338317871094 C 70.08229827880859 3.02447509765625 70.08247375488281 3.025733947753906 70.08263397216797 3.026863098144531 C 70.08273315429688 3.027557373046875 70.08283233642578 3.028282165527344 70.08293151855469 3.028976440429688 C 70.08309936523438 3.030166625976562 70.08325958251953 3.031318664550781 70.08342742919922 3.032508850097656 C 70.08352661132812 3.033203125 70.08363342285156 3.033973693847656 70.08372497558594 3.03466796875 C 70.08388519287109 3.035804748535156 70.08405303955078 3.037025451660156 70.08421325683594 3.038154602050781 C 70.08430480957031 3.038848876953125 70.08441162109375 3.039619445800781 70.08451080322266 3.040313720703125 C 70.08467102050781 3.041511535644531 70.08482360839844 3.042587280273438 70.08498382568359 3.043777465820312 C 70.08509063720703 3.044586181640625 70.08517456054688 3.045204162597656 70.08528900146484 3.046012878417969 C 70.08544921875 3.047210693359375 70.08560943603516 3.048377990722656 70.08576965332031 3.049575805664062 C 70.08586120605469 3.050270080566406 70.08595275878906 3.050910949707031 70.08604431152344 3.051605224609375 C 70.08621215820312 3.052864074707031 70.08638000488281 3.054122924804688 70.0865478515625 3.055381774902344 C 70.08662414550781 3.055953979492188 70.08672332763672 3.056709289550781 70.08679962158203 3.057281494140625 C 70.08698272705078 3.058662414550781 70.08716583251953 3.060012817382812 70.08734893798828 3.061393737792969 C 70.08742523193359 3.061965942382812 70.08747100830078 3.06231689453125 70.08754730224609 3.062896728515625 C 70.08772277832031 3.06427001953125 70.08791351318359 3.065711975097656 70.08808898925781 3.067085266113281 C 70.08815002441406 3.067550659179688 70.08823394775391 3.068168640136719 70.08829498291016 3.068626403808594 C 70.08851623535156 3.070365905761719 70.0887451171875 3.072135925292969 70.08896636962891 3.073875427246094 C 70.08898162841797 3.073989868164062 70.08900451660156 3.074119567871094 70.08901214599609 3.074234008789062 C 70.08974456787109 3.079933166503906 70.09046173095703 3.08563232421875 70.09117126464844 3.091339111328125 C 70.09123992919922 3.0919189453125 70.09133148193359 3.092643737792969 70.09140014648438 3.093223571777344 C 70.09156036376953 3.094482421875 70.09172058105469 3.095802307128906 70.09187316894531 3.097061157226562 C 70.09194183349609 3.097640991210938 70.09202575683594 3.098289489746094 70.09209442138672 3.098869323730469 C 70.09224700927734 3.100128173828125 70.0924072265625 3.101470947265625 70.09255981445312 3.102737426757812 C 70.09264373779297 3.103431701660156 70.09270477294922 3.103897094726562 70.09278106689453 3.104598999023438 C 70.09293365478516 3.105857849121094 70.09310150146484 3.107246398925781 70.09325408935547 3.108505249023438 C 70.09332275390625 3.109092712402344 70.09339141845703 3.109703063964844 70.09346008300781 3.110282897949219 C 70.09361267089844 3.111541748046875 70.09376525878906 3.112831115722656 70.09391021728516 3.114089965820312 C 70.093994140625 3.114791870117188 70.09409332275391 3.115615844726562 70.09416961669922 3.116310119628906 C 70.09430694580078 3.117454528808594 70.09445190429688 3.118667602539062 70.09458160400391 3.11981201171875 C 70.09467315673828 3.120628356933594 70.09474182128906 3.121192932128906 70.09483337402344 3.12200927734375 C 70.09496307373047 3.123153686523438 70.09510040283203 3.124336242675781 70.09523010253906 3.125480651855469 C 70.09531402587891 3.126174926757812 70.09541320800781 3.127044677734375 70.09548950195312 3.12774658203125 C 70.09561920166016 3.128890991210938 70.09575653076172 3.13006591796875 70.09588623046875 3.131210327148438 C 70.09597778320312 3.132026672363281 70.09605407714844 3.132720947265625 70.09614562988281 3.133537292480469 C 70.09626770019531 3.134620666503906 70.09638977050781 3.135688781738281 70.09651184082031 3.136772155761719 C 70.09659576416016 3.137588500976562 70.09671020507812 3.138572692871094 70.0968017578125 3.139381408691406 C 70.09690856933594 3.140411376953125 70.09703063964844 3.141494750976562 70.09714508056641 3.14251708984375 C 70.09724426269531 3.143447875976562 70.09731292724609 3.144073486328125 70.09741973876953 3.145004272460938 C 70.0975341796875 3.146087646484375 70.09764862060547 3.147163391113281 70.09777069091797 3.14825439453125 C 70.09785461425781 3.149070739746094 70.09793853759766 3.14984130859375 70.09803009033203 3.150657653808594 C 70.09815216064453 3.151802062988281 70.0982666015625 3.152854919433594 70.098388671875 3.154006958007812 C 70.09847259521484 3.154815673828125 70.09855651855469 3.155609130859375 70.09864807128906 3.156417846679688 C 70.09876251220703 3.157508850097656 70.09886169433594 3.158493041992188 70.09897613525391 3.159576416015625 C 70.09907531738281 3.160514831542969 70.09915924072266 3.161277770996094 70.09925842285156 3.162208557128906 C 70.099365234375 3.163230895996094 70.09947204589844 3.164291381835938 70.09957885742188 3.165313720703125 C 70.09966278076172 3.166130065917969 70.09976196289062 3.167083740234375 70.09984588623047 3.167900085449219 C 70.09995269775391 3.168930053710938 70.10006713867188 3.170013427734375 70.10016632080078 3.171043395996094 C 70.10025024414062 3.171859741210938 70.100341796875 3.172752380371094 70.10042572021484 3.173568725585938 C 70.10054016113281 3.174652099609375 70.10063934326172 3.175704956054688 70.10075378417969 3.176795959472656 C 70.10084533691406 3.177734375 70.10091400146484 3.17840576171875 70.10100555419922 3.179336547851562 C 70.10111236572266 3.180366516113281 70.10121154785156 3.181381225585938 70.10131072998047 3.182411193847656 C 70.10139465332031 3.1832275390625 70.10149383544922 3.184226989746094 70.10157775878906 3.185050964355469 C 70.1016845703125 3.186134338378906 70.10178375244141 3.187171936035156 70.10189056396484 3.188262939453125 C 70.10196685791016 3.189079284667969 70.10205078125 3.189910888671875 70.10212707519531 3.190727233886719 C 70.10224151611328 3.191879272460938 70.10234069824219 3.192916870117188 70.10245513916016 3.194068908691406 C 70.10251617431641 3.194770812988281 70.10260772705078 3.195701599121094 70.10267639160156 3.196403503417969 C 70.102783203125 3.197547912597656 70.10289764404297 3.19873046875 70.10300445556641 3.199882507324219 C 70.10308074951172 3.200698852539062 70.10314178466797 3.201347351074219 70.10321807861328 3.202163696289062 C 70.10333251953125 3.203315734863281 70.10342407226562 3.204353332519531 70.10353088378906 3.20550537109375 C 70.10360717773438 3.206329345703125 70.10368347167969 3.20709228515625 70.103759765625 3.207916259765625 C 70.10386657714844 3.209068298339844 70.10396575927734 3.210212707519531 70.10407257080078 3.21136474609375 C 70.10414123535156 3.212066650390625 70.10421752929688 3.212921142578125 70.10427856445312 3.213623046875 C 70.10439300537109 3.214836120605469 70.10449981689453 3.216049194335938 70.10460662841797 3.217262268066406 C 70.10466766357422 3.217964172363281 70.10472869873047 3.218635559082031 70.10479736328125 3.219337463378906 C 70.10490417480469 3.220550537109375 70.10501861572266 3.221839904785156 70.10512542724609 3.223052978515625 C 70.10518646240234 3.2237548828125 70.10524749755859 3.224418640136719 70.10530853271484 3.225120544433594 C 70.10541534423828 3.226394653320312 70.10552978515625 3.227684020996094 70.10564422607422 3.228965759277344 C 70.10569000244141 3.229545593261719 70.10575866699219 3.230255126953125 70.10580444335938 3.230842590332031 C 70.10594940185547 3.2325439453125 70.10610198974609 3.234336853027344 70.10624694824219 3.236038208007812 C 70.10626983642578 3.236274719238281 70.10627746582031 3.236328125 70.10629272460938 3.236564636230469 C 70.10662078857422 3.240394592285156 70.10694122314453 3.244285583496094 70.10725402832031 3.248115539550781 C 70.10729217529297 3.248588562011719 70.10735321044922 3.249351501464844 70.10739135742188 3.24981689453125 C 70.10750579833984 3.25115966796875 70.10761260986328 3.252487182617188 70.10771942138672 3.253822326660156 C 70.10777282714844 3.254531860351562 70.10784912109375 3.255462646484375 70.10790252685547 3.25616455078125 C 70.10799407958984 3.25732421875 70.10808563232422 3.258407592773438 70.10817718505859 3.259567260742188 C 70.10823822021484 3.260391235351562 70.10829925537109 3.261154174804688 70.10836029052734 3.261970520019531 C 70.10845184326172 3.263130187988281 70.10853576660156 3.264175415039062 70.10862731933594 3.265327453613281 C 70.10869598388672 3.266273498535156 70.10874938964844 3.2669677734375 70.10881805419922 3.267913818359375 C 70.10890197753906 3.268943786621094 70.10897827148438 3.269996643066406 70.10906219482422 3.271034240722656 C 70.10912322998047 3.271858215332031 70.10919952392578 3.27288818359375 70.10926055908203 3.273712158203125 C 70.10933685302734 3.274749755859375 70.10941314697266 3.275787353515625 70.1094970703125 3.276824951171875 C 70.10955810546875 3.27764892578125 70.109619140625 3.278579711914062 70.10968017578125 3.279403686523438 C 70.10975646972656 3.280441284179688 70.10984039306641 3.281585693359375 70.10991668701172 3.282623291015625 C 70.10997772216797 3.283447265625 70.11003875732422 3.28424072265625 70.11009216308594 3.285064697265625 C 70.11017608642578 3.286163330078125 70.11025238037109 3.287307739257812 70.11033630371094 3.288406372070312 C 70.11038970947266 3.289230346679688 70.11045074462891 3.290061950683594 70.11051177978516 3.290885925292969 C 70.11058807373047 3.291984558105469 70.11066436767578 3.293060302734375 70.11074066162109 3.294166564941406 C 70.11079406738281 3.294990539550781 70.11085510253906 3.295814514160156 70.11090850830078 3.296638488769531 C 70.11098480224609 3.297744750976562 70.11106109619141 3.298835754394531 70.11113739013672 3.299934387207031 C 70.11119842529297 3.300872802734375 70.11124420166016 3.301513671875 70.11130523681641 3.302459716796875 C 70.11138153076172 3.303558349609375 70.1114501953125 3.304641723632812 70.11152648925781 3.305740356445312 C 70.11157989501953 3.306564331054688 70.11163330078125 3.307350158691406 70.11168670654297 3.308174133300781 C 70.11176300048828 3.309280395507812 70.11183166503906 3.310371398925781 70.11190032958984 3.311470031738281 C 70.11195373535156 3.312294006347656 70.11202239990234 3.313255310058594 70.11207580566406 3.314079284667969 C 70.11213684082031 3.315116882324219 70.11220550537109 3.316154479980469 70.11227416992188 3.31719970703125 C 70.11232757568359 3.318138122558594 70.11238098144531 3.318939208984375 70.11244201660156 3.31988525390625 C 70.11250305175781 3.3209228515625 70.11256408691406 3.321891784667969 70.11263275146484 3.322929382324219 C 70.11268615722656 3.323875427246094 70.11274719238281 3.324760437011719 70.11280059814453 3.325706481933594 C 70.11286926269531 3.326744079589844 70.11292266845703 3.32769775390625 70.11298370361328 3.328742980957031 C 70.113037109375 3.329566955566406 70.11309814453125 3.330589294433594 70.11314392089844 3.331413269042969 C 70.11321258544922 3.332450866699219 70.11327362060547 3.333549499511719 70.11333465576172 3.334587097167969 C 70.11338806152344 3.335533142089844 70.11343383789062 3.336257934570312 70.11348724365234 3.337203979492188 C 70.11354827880859 3.338241577148438 70.11361694335938 3.33935546875 70.11367034912109 3.340400695800781 C 70.11372375488281 3.341224670410156 70.11376953125 3.342132568359375 70.11382293701172 3.34295654296875 C 70.11388397216797 3.344062805175781 70.11393737792969 3.345077514648438 70.11399841308594 3.346183776855469 C 70.11404418945312 3.347007751464844 70.11409759521484 3.347953796386719 70.11414337158203 3.348777770996094 C 70.11420440673828 3.349822998046875 70.11426544189453 3.350975036621094 70.11432647705078 3.352020263671875 C 70.11437225341797 3.35296630859375 70.11441040039062 3.353599548339844 70.11446380615234 3.354545593261719 C 70.11451721191406 3.3555908203125 70.11457824707031 3.356704711914062 70.11463165283203 3.357749938964844 C 70.11467742919922 3.35858154296875 70.11472320556641 3.359573364257812 70.11476898193359 3.360404968261719 C 70.11482238769531 3.361442565917969 70.11487579345703 3.362434387207031 70.11492919921875 3.363479614257812 C 70.11502075195312 3.365303039550781 70.11512756347656 3.367332458496094 70.11521148681641 3.369132995605469 C 70.11526489257812 3.370079040527344 70.11531066894531 3.371109008789062 70.11536407470703 3.372055053710938 C 70.11540985107422 3.373100280761719 70.11546325683594 3.374153137207031 70.11551666259766 3.375198364257812 C 70.11555480957031 3.376029968261719 70.11559295654297 3.376884460449219 70.11563110351562 3.377716064453125 C 70.11569213867188 3.378883361816406 70.11574554443359 3.380012512207031 70.11579895019531 3.381179809570312 C 70.11583709716797 3.382011413574219 70.11587524414062 3.382766723632812 70.11591339111328 3.383598327636719 C 70.115966796875 3.384765625 70.11602020263672 3.385932922363281 70.11606597900391 3.387100219726562 C 70.11610412597656 3.3878173828125 70.11614227294922 3.388641357421875 70.11617279052734 3.389350891113281 C 70.11622619628906 3.390586853027344 70.11627960205078 3.391845703125 70.1163330078125 3.393074035644531 C 70.11636352539062 3.393783569335938 70.11639404296875 3.394500732421875 70.11642456054688 3.395210266113281 C 70.11650848388672 3.397117614746094 70.11659240722656 3.399093627929688 70.11667633056641 3.4010009765625 C 70.11667633056641 3.401123046875 70.11667633056641 3.401115417480469 70.11668395996094 3.401237487792969 C 70.11676025390625 3.403083801269531 70.11683654785156 3.404914855957031 70.11690521240234 3.406761169433594 C 70.116943359375 3.4075927734375 70.11696624755859 3.408241271972656 70.11699676513672 3.409072875976562 C 70.11704254150391 3.410240173339844 70.11709594726562 3.411430358886719 70.11713409423828 3.41259765625 C 70.11717224121094 3.413436889648438 70.11720275878906 3.414291381835938 70.11723327636719 3.415122985839844 C 70.11727905273438 3.416236877441406 70.11731719970703 3.417259216308594 70.11735534667969 3.418373107910156 C 70.11738586425781 3.419204711914062 70.11741638183594 3.420089721679688 70.11744689941406 3.420921325683594 C 70.11749267578125 3.422035217285156 70.11753082275391 3.423171997070312 70.11756896972656 3.424278259277344 C 70.11759948730469 3.425117492675781 70.11762237548828 3.425796508789062 70.11765289306641 3.426628112792969 C 70.11769104003906 3.427742004394531 70.11773681640625 3.428947448730469 70.11776733398438 3.430061340332031 C 70.1177978515625 3.430892944335938 70.11782836914062 3.431816101074219 70.11785888671875 3.432647705078125 C 70.11789703369141 3.433761596679688 70.11792755126953 3.434768676757812 70.11796569824219 3.435874938964844 C 70.11798858642578 3.436714172363281 70.11802673339844 3.437744140625 70.11804962158203 3.438575744628906 C 70.11808013916016 3.439620971679688 70.11811828613281 3.440605163574219 70.11814880371094 3.441658020019531 C 70.11817932128906 3.442611694335938 70.11820220947266 3.443473815917969 70.11823272705078 3.444427490234375 C 70.11826324462891 3.445472717285156 70.11829376220703 3.446487426757812 70.11832427978516 3.447540283203125 C 70.11834716796875 3.448371887207031 70.11837768554688 3.449409484863281 70.11840057373047 3.450241088867188 C 70.11843109130859 3.4512939453125 70.11846160888672 3.4522705078125 70.11849212646484 3.453315734863281 C 70.11854553222656 3.455245971679688 70.11859893798828 3.457191467285156 70.11865234375 3.459144592285156 C 70.11869812011719 3.461090087890625 70.11875152587891 3.4630126953125 70.11879730224609 3.464958190917969 C 70.11885070800781 3.466903686523438 70.118896484375 3.468879699707031 70.11894226074219 3.470832824707031 C 70.11898803710938 3.4727783203125 70.11902618408203 3.474685668945312 70.11907196044922 3.476631164550781 C 70.11911773681641 3.478569030761719 70.11915588378906 3.48052978515625 70.11919403076172 3.48248291015625 C 70.11923217773438 3.484428405761719 70.11927032470703 3.486358642578125 70.11930847167969 3.488288879394531 C 70.11933135986328 3.489364624023438 70.11934661865234 3.490119934082031 70.11936187744141 3.491195678710938 C 70.11940002441406 3.493141174316406 70.11943054199219 3.495071411132812 70.11946868896484 3.497016906738281 C 70.11948394775391 3.498069763183594 70.11949920654297 3.499008178710938 70.11951446533203 3.50006103515625 C 70.11952972412109 3.501014709472656 70.11954498291016 3.501884460449219 70.11956024169922 3.502838134765625 C 70.11957550048828 3.503952026367188 70.11959075927734 3.504905700683594 70.11960601806641 3.506019592285156 C 70.11961364746094 3.506858825683594 70.11962890625 3.507820129394531 70.11964416503906 3.508659362792969 C 70.11965942382812 3.509712219238281 70.11966705322266 3.510765075683594 70.11968231201172 3.511817932128906 C 70.11969757080078 3.512779235839844 70.11970520019531 3.513587951660156 70.11972045898438 3.514549255371094 C 70.11972808837891 3.515663146972656 70.11974334716797 3.516670227050781 70.1197509765625 3.517784118652344 C 70.11976623535156 3.518623352050781 70.11977386474609 3.519523620605469 70.11978149414062 3.520362854003906 C 70.11979675292969 3.521415710449219 70.11980438232422 3.5225830078125 70.11981964111328 3.523643493652344 C 70.11982727050781 3.524482727050781 70.11983489990234 3.525405883789062 70.11984252929688 3.5262451171875 C 70.11985015869141 3.527359008789062 70.11985778808594 3.528472900390625 70.119873046875 3.529594421386719 C 70.119873046875 3.530433654785156 70.11988067626953 3.531242370605469 70.11988830566406 3.532081604003906 C 70.11989593505859 3.533203125 70.11990356445312 3.534355163574219 70.11991119384766 3.535476684570312 C 70.11991882324219 3.53631591796875 70.11992645263672 3.537132263183594 70.11992645263672 3.537971496582031 C 70.11993408203125 3.539207458496094 70.11994171142578 3.540390014648438 70.11994934082031 3.541633605957031 C 70.11995697021484 3.542350769042969 70.11995697021484 3.543067932128906 70.11996459960938 3.543785095214844 C 70.11996459960938 3.545089721679688 70.11997222900391 3.546363830566406 70.11997222900391 3.54766845703125 C 70.11997985839844 3.548271179199219 70.11997985839844 3.549087524414062 70.11997985839844 3.549690246582031 C 70.11998748779297 3.551124572753906 70.11998748779297 3.552505493164062 70.1199951171875 3.553932189941406 C 70.1199951171875 3.554534912109375 70.1199951171875 3.554954528808594 70.1199951171875 3.555557250976562 C 70.12000274658203 3.557548522949219 70.12000274658203 3.559455871582031 70.12000274658203 3.561447143554688 C 70.12000274658203 3.561447143554688 70.12000274658203 3.561447143554688 70.12000274658203 3.561447143554688 C 70.12000274658203 3.561447143554688 70.12000274658203 16.6978645324707 70.12000274658203 16.6978645324707 L 67.52000427246094 16.6978645324707 L 67.52000427246094 3.561447143554688 C 67.52000427246094 3.266921997070312 67.41368865966797 2.990791320800781 67.22833251953125 2.803863525390625 L 69.07455444335938 0.9731674194335938 Z M 67.52000427246094 22.6978645324707 L 70.12000274658203 22.6978645324707 C 70.12000274658203 22.6978645324707 70.12000274658203 38.69786834716797 70.12000274658203 38.69786834716797 L 67.52000427246094 38.69786834716797 L 67.52000427246094 22.6978645324707 Z M 67.52000427246094 44.69786834716797 L 70.12000274658203 44.69786834716797 C 70.12000274658203 44.69786834716797 70.12000274658203 60.69786834716797 70.12000274658203 60.69786834716797 L 67.52000427246094 60.69786834716797 L 67.52000427246094 44.69786834716797 Z M 67.27507781982422 64.8126220703125 L 69.25819396972656 66.49407958984375 C 68.93164825439453 66.87921905517578 68.52719879150391 67.18784332275391 68.07144927978516 67.39174652099609 C 68.06987762451172 67.39244842529297 68.06841278076172 67.39310455322266 68.06684112548828 67.39380645751953 C 68.06531524658203 67.39448547363281 68.06377410888672 67.39517211914062 68.06224822998047 67.39585113525391 C 68.0606689453125 67.39654541015625 68.05905914306641 67.39726257324219 68.05747985839844 67.39795684814453 C 68.05590057373047 67.39865875244141 68.05432891845703 67.39934539794922 68.05274963378906 67.40003967285156 C 68.05107116699219 67.40077972412109 68.04962158203125 67.40142059326172 68.04794311523438 67.40215301513672 C 68.04636383056641 67.40283966064453 68.04476165771484 67.40354156494141 68.04319000244141 67.40422821044922 C 68.04308319091797 67.40427398681641 68.04296875 67.40431976318359 68.04286956787109 67.40436553955078 C 68.02735900878906 67.41112518310547 68.01158142089844 67.41785430908203 67.99595642089844 67.42436218261719 C 67.99442291259766 67.42500305175781 67.99288940429688 67.42564392089844 67.99134826660156 67.42627716064453 C 67.98980712890625 67.42691802978516 67.98823547363281 67.42757415771484 67.9866943359375 67.42820739746094 C 67.98509979248047 67.42887115478516 67.98344421386719 67.42955017089844 67.98184967041016 67.43020629882812 C 67.98024749755859 67.43086242675781 67.97869110107422 67.43150329589844 67.97709655761719 67.43215942382812 C 67.97544097900391 67.43283081054688 67.97395324707031 67.43344116210938 67.97230529785156 67.43411254882812 C 67.97074890136719 67.43474578857422 67.96903991699219 67.43544006347656 67.96748352050781 67.43607330322266 C 67.96588134765625 67.43672180175781 67.96417999267578 67.43741607666016 67.96257781982422 67.43805694580078 C 67.9625244140625 67.43807983398438 67.96233367919922 67.43815612792969 67.9622802734375 67.43817901611328 C 67.95124816894531 67.442626953125 67.94023895263672 67.44700622558594 67.92914581298828 67.45133209228516 C 67.92914581298828 67.45133209228516 67.92900085449219 67.45139312744141 67.92900085449219 67.45139312744141 C 67.92739868164062 67.45201873779297 67.92578125 67.45264434814453 67.92417907714844 67.45326995849609 C 67.92251586914062 67.45391845703125 67.92095947265625 67.45452117919922 67.91929626464844 67.45516204833984 C 67.91757965087891 67.45582580566406 67.91611480712891 67.45639038085938 67.91439819335938 67.45705413818359 C 67.91278076171875 67.45767211914062 67.91104888916016 67.45833587646484 67.909423828125 67.45896148681641 C 67.90780639648438 67.45957946777344 67.90615844726562 67.46021270751953 67.90453338623047 67.46083068847656 C 67.90290832519531 67.46144866943359 67.90129852294922 67.46205902099609 67.89967346191406 67.46267700195312 C 67.89804840087891 67.46329498291016 67.89641571044922 67.46391296386719 67.89479064941406 67.46452331542969 C 67.89311218261719 67.46515655517578 67.89157867431641 67.46573638916016 67.889892578125 67.46636199951172 C 67.88832855224609 67.46695709228516 67.88689422607422 67.46749114990234 67.88532257080078 67.46807861328125 C 67.88371276855469 67.46868133544922 67.88235473632812 67.46918487548828 67.8807373046875 67.46978759765625 C 67.87127685546875 67.47330474853516 67.86167907714844 67.47682189941406 67.85218811035156 67.48025512695312 C 67.85066223144531 67.48080444335938 67.84906005859375 67.48137664794922 67.8475341796875 67.48192596435547 C 67.84596252441406 67.48249053955078 67.8443603515625 67.48306274414062 67.84278869628906 67.48362731933594 C 67.84120178222656 67.48419189453125 67.83945465087891 67.48481750488281 67.83786773681641 67.48538208007812 C 67.83628845214844 67.48594665527344 67.83466339111328 67.48651885986328 67.83307647705078 67.48708343505859 C 67.83138275146484 67.48767852783203 67.82989501953125 67.48820495605469 67.82820129394531 67.48880767822266 C 67.82660675048828 67.48936462402344 67.82491302490234 67.48995971679688 67.82331848144531 67.49051666259766 C 67.82167053222656 67.49109649658203 67.82003784179688 67.49166107177734 67.81838989257812 67.49224090576172 C 67.81673431396484 67.49281311035156 67.81507110595703 67.49339294433594 67.81341552734375 67.49396514892578 C 67.811767578125 67.49453735351562 67.81003570556641 67.49514007568359 67.80838012695312 67.49570465087891 C 67.80667877197266 67.49629211425781 67.80508422851562 67.49684143066406 67.80338287353516 67.49742126464844 C 67.80310821533203 67.49752044677734 67.80288696289062 67.49759674072266 67.8026123046875 67.49768829345703 C 67.79335784912109 67.5008544921875 67.78407287597656 67.50399017333984 67.77478790283203 67.50707244873047 C 67.77313232421875 67.50762176513672 67.77169036865234 67.50810241699219 67.77003479003906 67.50864410400391 C 67.76847076416016 67.50916290283203 67.76670837402344 67.50974273681641 67.76514434814453 67.51025390625 C 67.76348114013672 67.51080322265625 67.76180267333984 67.5113525390625 67.76013946533203 67.51189422607422 C 67.75852203369141 67.51242065429688 67.75682830810547 67.51297760009766 67.75521087646484 67.51350402832031 C 67.7535400390625 67.51404571533203 67.75179290771484 67.51461029052734 67.7501220703125 67.51515197753906 C 67.74839782714844 67.51570892333984 67.74689483642578 67.51618957519531 67.74517059326172 67.51674652099609 C 67.74355316162109 67.51726531982422 67.74176025390625 67.51783752441406 67.74014282226562 67.51835632324219 C 67.73846435546875 67.51889038085938 67.73684692382812 67.5194091796875 67.73516845703125 67.51993560791016 C 67.73349761962891 67.52046966552734 67.73172760009766 67.52103424072266 67.73004913330078 67.52156066894531 C 67.72842407226562 67.52207183837891 67.72666168212891 67.52262878417969 67.72503662109375 67.52313995361328 C 67.72331237792969 67.523681640625 67.72163391113281 67.52420043945312 67.71990966796875 67.52474212646484 C 67.71824645996094 67.52526092529297 67.716552734375 67.52578735351562 67.71488952636719 67.52630615234375 C 67.7147216796875 67.52635192871094 67.71450805664062 67.52642059326172 67.71434020996094 67.52647399902344 C 67.7083740234375 67.5283203125 67.70227813720703 67.53018951416016 67.69629669189453 67.53200531005859 C 67.69466400146484 67.53250122070312 67.69287109375 67.53304290771484 67.69123840332031 67.53353881835938 C 67.68965911865234 67.53401184082031 67.68792724609375 67.53453063964844 67.68635559082031 67.53500366210938 C 67.68466949462891 67.53550720214844 67.68302917480469 67.53599548339844 67.68134307861328 67.5364990234375 C 67.67975616455078 67.53697204589844 67.67791748046875 67.53752136230469 67.67633056640625 67.53799438476562 C 67.67458343505859 67.53850555419922 67.67295837402344 67.53898620605469 67.67121124267578 67.53950500488281 C 67.66952514648438 67.54000091552734 67.66781616210938 67.54050445556641 67.66612243652344 67.54099273681641 C 67.6644287109375 67.54148864746094 67.66277313232422 67.54196929931641 67.66108703613281 67.54246520996094 C 67.65933990478516 67.54296875 67.65779113769531 67.54341888427734 67.65604400634766 67.54392242431641 C 67.65435028076172 67.54441833496094 67.65256500244141 67.54492950439453 67.65086364746094 67.54541778564453 C 67.649169921875 67.54590606689453 67.64742279052734 67.54640197753906 67.64572143554688 67.54689025878906 C 67.64408874511719 67.54735565185547 67.64228057861328 67.54786682128906 67.64064025878906 67.54833221435547 C 67.63883972167969 67.54884338378906 67.63732147216797 67.54927062988281 67.63552093505859 67.54978179931641 C 67.63507843017578 67.54990386962891 67.63472747802734 67.55000305175781 67.63427734375 67.55012512207031 C 67.62970733642578 67.55141448974609 67.62509155273438 67.55270385742188 67.62051391601562 67.55396270751953 C 67.61940765380859 67.55426788330078 67.61827850341797 67.55458068847656 67.61717987060547 67.55487823486328 C 67.61557769775391 67.55532073974609 67.61390686035156 67.55577850341797 67.6123046875 67.55622100830078 C 67.61054229736328 67.55670166015625 67.60884094238281 67.55716705322266 67.60707855224609 67.55764007568359 C 67.60541534423828 67.55809783935547 67.60350036621094 67.55860900878906 67.60183715820312 67.55905914306641 C 67.60007476806641 67.55953979492188 67.59854125976562 67.55995178222656 67.59677124023438 67.5604248046875 C 67.59500122070312 67.56089782714844 67.59336853027344 67.56133270263672 67.59159851074219 67.56180572509766 C 67.58983612060547 67.56227111816406 67.58821105957031 67.56270599365234 67.58644104003906 67.56317138671875 C 67.58472442626953 67.56362152099609 67.58292388916016 67.56409454345703 67.58120727539062 67.56454467773438 C 67.57959747314453 67.56497192382812 67.57774353027344 67.56545257568359 67.57613372802734 67.56587219238281 C 67.57436370849609 67.56633758544922 67.57266998291016 67.56678009033203 67.57089233398438 67.56723785400391 C 67.56912994384766 67.56769561767578 67.56749725341797 67.568115234375 67.56572723388672 67.56856536865234 C 67.56401062011719 67.56900787353516 67.56223297119141 67.56946563720703 67.56050872802734 67.56990051269531 C 67.55890655517578 67.5703125 67.55699920654297 67.57080078125 67.55538940429688 67.57120513916016 C 67.55483245849609 67.57135009765625 67.55431365966797 67.57147979736328 67.55374908447266 67.57161712646484 C 67.54798126220703 67.57307434082031 67.54216003417969 67.57453155517578 67.536376953125 67.57595825195312 C 67.53471374511719 67.57637023925781 67.53324890136719 67.57672882080078 67.53158569335938 67.57713317871094 C 67.52991485595703 67.57754516601562 67.52820587158203 67.57796478271484 67.52653503417969 67.578369140625 C 67.52480316162109 67.57878875732422 67.52310180664062 67.57920074462891 67.52137756347656 67.57962036132812 C 67.51969909667969 67.58002471923828 67.51793670654297 67.58045196533203 67.51625823974609 67.58084869384766 C 67.51457214355469 67.58125305175781 67.51273345947266 67.58169555664062 67.51105499267578 67.58209228515625 C 67.50937652587891 67.58248901367188 67.50748443603516 67.58293914794922 67.50580596923828 67.58333587646484 C 67.50402069091797 67.58375549316406 67.5023193359375 67.58415985107422 67.50053405761719 67.58457946777344 C 67.49890899658203 67.5849609375 67.49699401855469 67.58540344238281 67.49536895751953 67.58578491210938 C 67.49358367919922 67.58619689941406 67.491943359375 67.58657836914062 67.49015045166016 67.58699035644531 C 67.488525390625 67.58736419677734 67.48656463623047 67.58781433105469 67.48493957519531 67.58818817138672 C 67.48314666748047 67.58860015869141 67.48149871826172 67.58897399902344 67.47970581054688 67.58937835693359 C 67.47792053222656 67.58979034423828 67.47628021240234 67.59015655517578 67.4744873046875 67.59056091308594 C 67.47274780273438 67.59095764160156 67.47097015380859 67.59135437011719 67.46923065185547 67.59174346923828 C 67.46654510498047 67.59233856201172 67.46376800537109 67.59295654296875 67.46108245849609 67.59355163574219 C 67.45949554443359 67.59390258789062 67.45793914794922 67.59424591064453 67.45635223388672 67.59458923339844 C 67.45460510253906 67.59497833251953 67.45274353027344 67.59538269042969 67.45098876953125 67.59576416015625 C 67.44918060302734 67.59615325927734 67.44752502441406 67.59651184082031 67.44572448730469 67.59690093994141 C 67.44402313232422 67.59726715087891 67.44210052490234 67.59767913818359 67.44039916992188 67.59804534912109 C 67.4385986328125 67.59842681884766 67.43701171875 67.59876251220703 67.43520355224609 67.59915161132812 C 67.43350219726562 67.59951019287109 67.43156433105469 67.59992218017578 67.42986297607422 67.60027313232422 C 67.42805480957031 67.60065460205078 67.42642211914062 67.60099792480469 67.42461395263672 67.60137176513672 C 67.42291259765625 67.60173034667969 67.42103576660156 67.60211944580078 67.41932678222656 67.60247039794922 C 67.41751861572266 67.60284423828125 67.4158935546875 67.60317993164062 67.41408538818359 67.60354614257812 C 67.41237640380859 67.60389709472656 67.41044616699219 67.60429382324219 67.40873718261719 67.60463714599609 C 67.40692901611328 67.60500335693359 67.40530395507812 67.60533142089844 67.40348815917969 67.60569763183594 C 67.40178680419922 67.60604095458984 67.39988708496094 67.60642242431641 67.39817810058594 67.60676574707031 C 67.39641571044922 67.60711669921875 67.39471435546875 67.60745239257812 67.39295196533203 67.60780334472656 C 67.39107513427734 67.60816955566406 67.38945007324219 67.60848999023438 67.38758087158203 67.60885620117188 C 67.38581085205078 67.60919952392578 67.38410949707031 67.60953521728516 67.38233947753906 67.60987854003906 C 67.37979125976562 67.61037445068359 67.37726593017578 67.61085510253906 67.37472534179688 67.61134338378906 C 67.37289428710938 67.6116943359375 67.37100982666016 67.61205291748047 67.36918640136719 67.61239624023438 C 67.36736297607422 67.61274719238281 67.36560821533203 67.61307525634766 67.36378479003906 67.61341857910156 C 67.36206817626953 67.61373901367188 67.36021423339844 67.61408996582031 67.35849761962891 67.61440277099609 C 67.35678100585938 67.61472320556641 67.35493469238281 67.61506652832031 67.35321807861328 67.61537933349609 C 67.35150146484375 67.61569976806641 67.34957122802734 67.61605072021484 67.34785461425781 67.61636352539062 C 67.34603118896484 67.61669921875 67.34435272216797 67.61700439453125 67.342529296875 67.61733245849609 C 67.34081268310547 67.61764526367188 67.33892822265625 67.61798095703125 67.33720397949219 67.6182861328125 C 67.33538055419922 67.61861419677734 67.33376312255859 67.61890411376953 67.33193206787109 67.61923217773438 C 67.33015441894531 67.61954498291016 67.32831573486328 67.61986541748047 67.3265380859375 67.62017822265625 C 67.32470703125 67.62049865722656 67.32300567626953 67.62079620361328 67.32118225097656 67.62111663818359 C 67.3194580078125 67.62141418457031 67.31756591796875 67.62174224853516 67.31584167480469 67.62203216552734 C 67.31401824951172 67.62235260009766 67.3123779296875 67.62262725830078 67.31055450439453 67.62294006347656 C 67.30876922607422 67.62324523925781 67.30698394775391 67.62354278564453 67.30520629882812 67.62384033203125 C 67.30337524414062 67.62415313720703 67.30168151855469 67.62443542480469 67.29985046386719 67.62474060058594 C 67.29756164550781 67.6251220703125 67.29518127441406 67.62551116943359 67.29288482666016 67.62589263916016 C 67.29103088378906 67.62619781494141 67.28903198242188 67.62651824951172 67.28717803955078 67.62682342529297 C 67.28521728515625 67.62713623046875 67.28340148925781 67.62743377685547 67.28144073486328 67.62774658203125 C 67.27965545654297 67.62802886962891 67.27775573730469 67.62833404541016 67.27597045898438 67.62861633300781 C 67.27418518066406 67.62889862060547 67.27245330810547 67.62917327880859 67.27066802978516 67.62945556640625 C 67.26882171630859 67.62974548339844 67.26709747314453 67.63001251220703 67.26525115966797 67.63030242919922 C 67.26345825195312 67.63057708740234 67.26168823242188 67.63085174560547 67.25990295410156 67.63112640380859 C 67.25811004638672 67.63139343261719 67.25629425048828 67.63167572021484 67.25450897216797 67.63194274902344 C 67.25282287597656 67.6322021484375 67.25088500976562 67.63249206542969 67.24920654296875 67.63274383544922 C 67.24735260009766 67.63301849365234 67.24556732177734 67.63328552246094 67.24372100830078 67.63356018066406 C 67.24192810058594 67.63382720947266 67.24011993408203 67.63408660888672 67.23832702636719 67.63435363769531 C 67.23653411865234 67.63461303710938 67.23470306396484 67.63488006591797 67.23291015625 67.63513946533203 C 67.23122406005859 67.63538360595703 67.22927093505859 67.63566589355469 67.22758483886719 67.63590240478516 C 67.22584533691406 67.63615417480469 67.22392272949219 67.63642120361328 67.22217559814453 67.63667297363281 C 67.22031402587891 67.63693237304688 67.21866607666016 67.63716125488281 67.21680450439453 67.63742065429688 C 67.21485137939453 67.6376953125 67.21296691894531 67.63795471191406 67.21100616455078 67.63822174072266 C 67.20889282226562 67.63851165771484 67.20659637451172 67.63882446289062 67.20447540283203 67.63910675048828 C 67.20243835449219 67.63938140869141 67.20042419433594 67.63965606689453 67.19837951660156 67.63992309570312 C 67.19657897949219 67.64016723632812 67.19464111328125 67.64041900634766 67.19283294677734 67.64066314697266 C 67.19097137451172 67.64089965820312 67.18922424316406 67.64112854003906 67.18736267089844 67.64137268066406 C 67.18560791015625 67.6416015625 67.18365478515625 67.64185333251953 67.18190002441406 67.64207458496094 C 67.18009948730469 67.64230346679688 67.17827606201172 67.64253234863281 67.17647552490234 67.64276123046875 C 67.17466735839844 67.64299011230469 67.17283630371094 67.64321899414062 67.17103576660156 67.64344024658203 C 67.16922760009766 67.64366912841797 67.16743469238281 67.64389038085938 67.16562652587891 67.64411163330078 C 67.16376495361328 67.64433288574219 67.16205596923828 67.64454650878906 67.16019439697266 67.64476776123047 C 67.15843963623047 67.64498138427734 67.15653991699219 67.64521026611328 67.15478515625 67.64541625976562 C 67.15292358398438 67.64563751220703 67.15118408203125 67.64584350585938 67.14932250976562 67.64605712890625 C 67.14751434326172 67.64627075195312 67.14567565917969 67.646484375 67.14386749267578 67.64669799804688 C 67.14199829101562 67.64691162109375 67.14030456542969 67.64710235595703 67.13844299316406 67.64731597900391 C 67.13673400878906 67.64750671386719 67.134765625 67.64772796630859 67.133056640625 67.64791870117188 C 67.13126373291016 67.64812469482422 67.12943267822266 67.64832305908203 67.12763977050781 67.64852142333984 C 67.12549591064453 67.64875793457031 67.12303924560547 67.64902496337891 67.12090301513672 67.64925384521484 C 67.11890411376953 67.64947509765625 67.11673736572266 67.64970397949219 67.11473083496094 67.64991760253906 C 67.11296081542969 67.65010070800781 67.11079406738281 67.65032958984375 67.10902404785156 67.6505126953125 C 67.10713958740234 67.65071105957031 67.10543823242188 67.65088653564453 67.10356140136719 67.65107727050781 C 67.10167694091797 67.65126800537109 67.09988403320312 67.65145111083984 67.09800720214844 67.65164184570312 C 67.09618377685547 67.65182495117188 67.09439086914062 67.65200042724609 67.09256744384766 67.65218353271484 C 67.09074401855469 67.65235900878906 67.08890533447266 67.65254211425781 67.08708190917969 67.65271759033203 C 67.08525085449219 67.65289306640625 67.08347320556641 67.65306854248047 67.08164215087891 67.65324401855469 C 67.07981872558594 67.65341186523438 67.07791137695312 67.65359497070312 67.07608032226562 67.65376281738281 C 67.07425689697266 67.65393829345703 67.07248687744141 67.65409851074219 67.07065582275391 67.65426635742188 C 67.06893920898438 67.65442657470703 67.06686401367188 67.65461730957031 67.06514739990234 67.65476989746094 C 67.06332397460938 67.65493011474609 67.06150817871094 67.65509796142578 67.05968475341797 67.65525817871094 C 67.05785369873047 67.65541839599609 67.05595397949219 67.65557861328125 67.05412292480469 67.65573883056641 C 67.05235290527344 67.65589141845703 67.05049896240234 67.65605163574219 67.04872131347656 67.65620422363281 C 67.04679870605469 67.65636444091797 67.04515838623047 67.65650177001953 67.04324340820312 67.65666198730469 C 67.04125213623047 67.65682983398438 67.03904724121094 67.65700531005859 67.03704833984375 67.65716552734375 C 67.03474426269531 67.65735626220703 67.03257751464844 67.65752410888672 67.03025817871094 67.65770721435547 C 67.02841949462891 67.65785217285156 67.02640533447266 67.65801239013672 67.02455902099609 67.65814971923828 C 67.02266693115234 67.65829467773438 67.02078247070312 67.65843963623047 67.01889038085938 67.65858459472656 C 67.01705932617188 67.65872192382812 67.01509094238281 67.65886688232422 67.01325225830078 67.65900421142578 C 67.01142883300781 67.65913391113281 67.00956726074219 67.65927124023438 67.00773620605469 67.65940093994141 C 67.00595855712891 67.65953063964844 67.00411987304688 67.65966033935547 67.00234222412109 67.65978240966797 C 67.00045013427734 67.659912109375 66.99871826171875 67.6600341796875 66.996826171875 67.66016387939453 C 66.99504852294922 67.66028594970703 66.99303436279297 67.66042327880859 66.99124908447266 67.66053771972656 C 66.98936462402344 67.66065979003906 66.98760986328125 67.66078186035156 66.9857177734375 67.66090393066406 C 66.98388671875 67.66101837158203 66.98204040527344 67.6611328125 66.98020935058594 67.66124725341797 C 66.97837829589844 67.66136932373047 66.97653961181641 67.66147613525391 66.97470855712891 67.66159057617188 C 66.97286987304688 67.66170501708984 66.97099304199219 67.66181945800781 66.96915435791016 67.66192626953125 C 66.96732330322266 67.66203308105469 66.96550750732422 67.66213989257812 66.96366882324219 67.66224670410156 C 66.96176147460938 67.662353515625 66.96012115478516 67.66245269775391 66.95820617675781 67.66255187988281 C 66.95603942871094 67.66267395019531 66.95393371582031 67.66278839111328 66.95176696777344 67.66291046142578 C 66.94956207275391 67.66302490234375 66.94733428955078 67.66314697265625 66.94512176513672 67.66325378417969 C 66.94316101074219 67.66336059570312 66.94124603271484 67.6634521484375 66.93927764892578 67.66355133056641 C 66.93743133544922 67.66364288330078 66.93558502197266 67.66373443603516 66.93373870849609 67.66382598876953 C 66.93177795410156 67.66391754150391 66.93003082275391 67.66400146484375 66.92807006835938 67.66409301757812 C 66.92617034912109 67.66417694091797 66.92439270019531 67.66426086425781 66.9224853515625 67.66434478759766 C 66.92058563232422 67.6644287109375 66.91886901855469 67.66450500488281 66.91696929931641 67.66458892822266 C 66.91517639160156 67.66466522216797 66.913330078125 67.66474151611328 66.91153717041016 67.66481018066406 C 66.90975189208984 67.66488647460938 66.90770721435547 67.66497039794922 66.90591430664062 67.6650390625 C 66.90401458740234 67.66511535644531 66.90229797363281 67.66517639160156 66.900390625 67.66525268554688 C 66.89854431152344 67.66532135009766 66.89665985107422 67.66539001464844 66.89481353759766 67.66545867919922 C 66.89302062988281 67.66551971435547 66.89109802246094 67.66558837890625 66.88930511474609 67.6656494140625 C 66.88733673095703 67.66571807861328 66.88568115234375 67.665771484375 66.88371276855469 67.66583251953125 C 66.88185882568359 67.6658935546875 66.88002777099609 67.66594696044922 66.878173828125 67.66600799560547 C 66.87625885009766 67.66606903076172 66.87451934814453 67.66611480712891 66.87260437011719 67.66617584228516 C 66.86824035644531 67.66629791259766 66.8638916015625 67.66641235351562 66.85951995849609 67.66651916503906 C 66.8575439453125 67.66657257080078 66.855712890625 67.66661071777344 66.85373687744141 67.66665649414062 C 66.85182189941406 67.66670227050781 66.84992218017578 67.66674041748047 66.84799957275391 67.66678619384766 C 66.84603118896484 67.66682434082031 66.84437561035156 67.66685485839844 66.8424072265625 67.66689300537109 C 66.84060668945312 67.66693115234375 66.83856201171875 67.66696929931641 66.83676147460938 67.66699981689453 C 66.83484649658203 67.66703033447266 66.83306121826172 67.66706085205078 66.83114624023438 67.66709136962891 C 66.82929229736328 67.66712188720703 66.82742309570312 67.66715240478516 66.82556915283203 67.66717529296875 C 66.82382202148438 67.66719818115234 66.82177734375 67.66722869873047 66.82003021240234 67.66725158691406 C 66.818115234375 67.66727447509766 66.81632995605469 67.66728973388672 66.81441497802734 67.66731262207031 C 66.81260681152344 67.66732788085938 66.81065368652344 67.66735076904297 66.80884552001953 67.66736602783203 C 66.80693054199219 67.66738128662109 66.80519104003906 67.66739654541016 66.80327606201172 67.66741180419922 C 66.80141448974609 67.66741943359375 66.79958343505859 67.66743469238281 66.79771423339844 67.66744232177734 C 66.79579162597656 67.66745758056641 66.79403686523438 67.66746520996094 66.7921142578125 67.66746520996094 C 66.79035186767578 67.66747283935547 66.78828430175781 67.66748046875 66.78652191162109 67.66748046875 C 66.78466796875 67.66748809814453 66.78280639648438 67.66748809814453 66.78094482421875 67.66748809814453 C 66.78094482421875 67.66748809814453 53.61081314086914 67.66748809814453 53.61081314086914 67.66748809814453 L 53.61081314086914 65.06748962402344 L 66.78094482421875 65.06748962402344 C 67.0107421875 65.06748962402344 67.17649841308594 64.92888641357422 67.27507781982422 64.8126220703125 Z M 31.61081314086914 65.06748962402344 L 47.61081314086914 65.06748962402344 L 47.61081314086914 67.66748809814453 C 47.61081314086914 67.66748809814453 31.61081314086914 67.66748809814453 31.61081314086914 67.66748809814453 L 31.61081314086914 65.06748962402344 Z M 9.610813140869141 65.06748962402344 L 25.61081314086914 65.06748962402344 L 25.61081314086914 67.66748809814453 C 25.61081314086914 67.66748809814453 9.610813140869141 67.66748809814453 9.610813140869141 67.66748809814453 L 9.610813140869141 65.06748962402344 Z M 0 53.79947662353516 L 2.599998474121094 53.79947662353516 L 2.599998474121094 64.10604095458984 C 2.599998474121094 64.627197265625 2.938446044921875 65.06748962402344 3.339042663574219 65.06748962402344 L 3.610809326171875 65.06748962402344 L 3.610809326171875 67.66748809814453 C 3.610809326171875 67.66748809814453 3.339042663574219 67.66748809814453 3.339042663574219 67.66748809814453 C 1.494949340820312 67.66748809814453 0 66.07297515869141 0 64.10604095458984 L 0 53.79947662353516 Z M 0 31.79947662353516 L 2.599998474121094 31.79947662353516 L 2.599998474121094 47.79947662353516 L 0 47.79947662353516 L 0 31.79947662353516 Z M 0 9.799476623535156 L 2.599998474121094 9.799476623535156 L 2.599998474121094 25.79947662353516 L 0 25.79947662353516 L 0 9.799476623535156 Z M 3.339042663574219 0 L 3.339042663574219 2.599998474121094 C 2.938446044921875 2.599998474121094 2.599998474121094 3.040290832519531 2.599998474121094 3.561447143554688 L 2.599998474121094 3.799476623535156 L 0 3.799476623535156 L 0 3.561447143554688 C 0 1.594512939453125 1.494949340820312 0 3.339042663574219 0 Z" stroke="none" fill="#00a7b4"/>
  </g>
  <g id="Path_1081" data-name="Path 1081" transform="translate(-1218.264 -1191.357) rotate(-45)" fill="#fff" stroke-linecap="round" stroke-linejoin="round">
    <path d="M 27.67084884643555 1798.732177734375 L 26.4310188293457 1798.732177734375 L 15.43535995483398 1798.732177734375 L 14.23637962341309 1798.732177734375 L 14.33942985534668 1797.537719726562 L 15.06757926940918 1789.097045898438 L 16.49116325378418 1772.6962890625 L 10.18944931030273 1772.6962890625 L 8.266739845275879 1772.6962890625 L 9.241189956665039 1771.038818359375 L 19.70751953125 1753.236083984375 L 20.67234039306641 1751.594970703125 L 21.61232948303223 1753.25048828125 L 31.72092056274414 1771.05322265625 L 32.6539192199707 1772.6962890625 L 30.76436996459961 1772.6962890625 L 24.88368797302246 1772.6962890625 L 26.47628021240234 1788.773193359375 L 27.52318954467773 1797.501220703125 L 27.67084884643555 1798.732177734375 Z" stroke="none"/>
    <path d="M 20.6557788848877 1753.793579101562 L 10.18944931030273 1771.596313476562 L 17.6907787322998 1771.596313476562 L 16.16350936889648 1789.191528320312 L 15.43535995483398 1797.632202148438 L 26.4310188293457 1797.632202148438 L 25.38275909423828 1788.892944335938 L 23.66934013366699 1771.596313476562 L 30.76436996459961 1771.596313476562 L 20.6557788848877 1753.793579101562 M 20.65570449829102 1751.593627929688 C 20.6612606048584 1751.593627929688 20.66678619384766 1751.593627929688 20.67234992980957 1751.593627929688 C 21.45804023742676 1751.599609375 22.18092918395996 1752.024047851562 22.56888961791992 1752.707275390625 L 32.6774787902832 1770.510009765625 C 33.06417846679688 1771.191040039062 33.0596809387207 1772.0263671875 32.6656608581543 1772.703125 C 32.27164840698242 1773.380004882812 31.54752922058105 1773.796264648438 30.76436996459961 1773.796264648438 L 26.09803771972656 1773.796264648438 L 27.56978988647461 1788.6533203125 L 28.61536026000977 1797.370239257812 C 28.69028854370117 1797.994873046875 28.49420928955078 1798.621704101562 28.07667922973633 1799.09228515625 C 27.65916061401367 1799.562866210938 27.06013870239258 1799.832153320312 26.4310188293457 1799.832153320312 L 15.43535995483398 1799.832153320312 C 14.81900978088379 1799.832153320312 14.23093032836914 1799.573608398438 13.81424903869629 1799.119506835938 C 13.39757919311523 1798.665283203125 13.19052886962891 1798.05712890625 13.24349975585938 1797.443115234375 L 13.97164916992188 1789.00244140625 L 15.29154586791992 1773.796264648438 L 10.18944931030273 1773.796264648438 C 9.400369644165039 1773.796264648438 8.671718597412109 1773.373657226562 8.279869079589844 1772.688842773438 C 7.888031005859375 1772.00390625 7.893009185791016 1771.16162109375 8.292919158935547 1770.481323242188 L 18.75924873352051 1752.678588867188 C 19.15464019775391 1752.006103515625 19.87638473510742 1751.593627929688 20.65570449829102 1751.593627929688 Z" stroke="none" fill="#00a7b4"/>
  </g>
</svg>
