<svg id="user-silhouette" xmlns="http://www.w3.org/2000/svg" width="29.073" height="24.363" viewBox="0 0 29.073 24.363">
  <g id="Group_137" data-name="Group 137">
    <path id="Path_153" data-name="Path 153" d="M118.8,16.156c3.29,0,5.958-3.188,5.958-7.12,0-5.453-2.668-7.12-5.958-7.12s-5.958,1.667-5.958,7.12C112.843,12.968,115.51,16.156,118.8,16.156Z" transform="translate(-104.13 -1.916)" fill="#252423"/>
    <path id="Path_154" data-name="Path 154" d="M28.93,229.753l-3.289-5.679a1.482,1.482,0,0,0-.744-.607l-5.1-2.037a.414.414,0,0,0-.35.023,10.055,10.055,0,0,1-9.816,0,.414.414,0,0,0-.35-.023l-5.1,2.037a1.481,1.481,0,0,0-.744.607L.142,229.753a1.01,1.01,0,0,0,.124,1.2,1.808,1.808,0,0,0,1.378.573H27.427a1.809,1.809,0,0,0,1.379-.573A1.01,1.01,0,0,0,28.93,229.753Z" transform="translate(0.001 -207.162)" fill="#252423"/>
  </g>
</svg>
