<svg id="user-silhouette" xmlns="http://www.w3.org/2000/svg" width="13.38" height="13.255" viewBox="0 0 13.38 13.255">
  <g id="Group_137" data-name="Group 137">
    <path id="Path_153" data-name="Path 153" d="M115.843,8.939a3.286,3.286,0,0,0,3-3.511c0-2.689-1.343-3.511-3-3.511s-3,.822-3,3.511A3.286,3.286,0,0,0,115.843,8.939Z" transform="translate(-109.153 -1.916)" fill="#252423"/>
    <path id="Path_154" data-name="Path 154" d="M13.314,226.416,11.8,223.006a.76.76,0,0,0-.342-.364l-2.349-1.223a.151.151,0,0,0-.161.014,3.706,3.706,0,0,1-4.518,0,.152.152,0,0,0-.161-.014l-2.349,1.223a.759.759,0,0,0-.342.364L.065,226.416a.757.757,0,0,0,.692,1.064H12.622a.757.757,0,0,0,.692-1.064Z" transform="translate(0.001 -214.225)" fill="#252423"/>
  </g>
</svg>
